%
M48
M72
T01C0.02362
T02C0.03150
T03C0.03200
T04C0.03937
T05C0.04331
T06C0.04500
T07C0.04724
T08C0.05900
T09C0.07300
T10C0.08661
T11C0.11614
T12C0.12500
T13C0.12992
%
T01
X142250Y107450
X157850Y123050
X173450Y138650
X532250Y51850
X547850Y66850
X563450Y96850
X892250Y51850
X917850Y81850
X928450Y96850
X1226650Y51850
X1511650Y261850
X1521650Y296850
X1546650Y296850
X1303450Y284850
X1288650Y284850
T02
X1552752Y486850
X1571650Y498661
T03
X1561650Y326850
X1581650Y326850
X1565650Y309350
X1597650Y309350
X1586650Y286850
X1566650Y286850
X1576650Y266850
X1596650Y266850
X1597650Y251850
X1565650Y251850
X1566650Y236850
X1586650Y236850
X1576650Y211850
X1596650Y211850
X1597650Y196850
X1565650Y196850
X1576650Y181850
X1596650Y181850
X1316650Y86850
X1286650Y86850
X1286650Y66850
X1316650Y66850
X1360450Y61850
X1380450Y61850
X1396050Y61850
X1416050Y61850
X1336650Y286850
X1316650Y286850
T04
X1571650Y475039
T05
X1396650Y236850
X1476650Y206850
X1476650Y186850
X1526650Y186850
X1526650Y166850
X1476650Y156850
X1396650Y156850
X1346650Y156850
X1346650Y196850
X1396650Y196850
X1216650Y186850
X1166650Y186850
X1166650Y206850
X1086650Y196850
X1036650Y196850
X1036650Y156850
X1086650Y156850
X1166650Y156850
X1216650Y166850
X1216650Y126850
X1346650Y116850
X1526650Y126850
X1086650Y236850
X896650Y186850
X846650Y186850
X846650Y206850
X766650Y196850
X716650Y196850
X716650Y156850
X766650Y156850
X846650Y156850
X896650Y166850
X896650Y126850
X1036650Y116850
X716650Y116850
X766650Y236850
T06
X1361650Y471750
X1371650Y471750
X1381650Y471750
X1391650Y471750
X1401650Y471750
X1411650Y471750
X1411650Y487350
X1401650Y487350
X1391650Y487350
X1381650Y487350
X1371650Y487350
X1361650Y487350
T07
X142250Y41600
X157850Y41600
X173450Y41600
X203650Y41600
X219250Y41600
X234850Y41600
X250450Y41600
X266050Y41600
X281650Y41600
X41400Y107450
X41400Y123050
X41400Y138650
X41400Y168850
X41400Y184450
X41400Y200050
X41400Y215650
X41400Y231250
X41400Y246850
X219250Y271850
X234850Y291850
X234850Y312105
X219250Y312105
X203650Y312105
X173450Y312105
X157850Y312105
X142250Y312105
X250450Y312105
X266050Y312105
X281650Y312105
X266050Y251250
X250450Y231850
X234850Y200050
X219250Y184450
X266050Y161850
X532250Y41600
X547850Y41600
X563450Y41600
X593650Y41600
X609250Y41600
X624850Y41600
X640450Y41600
X656050Y41600
X671650Y41600
X892250Y41600
X907850Y41600
X923450Y41600
X953650Y41600
X969250Y41600
X984850Y41600
X1000450Y41600
X1016050Y41600
X1031650Y41600
X1272250Y41600
X1287850Y41600
X1303450Y41600
X1333650Y41600
X1349250Y41600
X1364850Y41600
X1380450Y41600
X1396050Y41600
X1411650Y41600
X1416650Y111850
X1380450Y136850
X1301650Y201850
X1066650Y136850
X656050Y141850
X640450Y241850
X609250Y281850
X624850Y301850
X892250Y312105
X907850Y312105
X923450Y312105
X953650Y312105
X969250Y312105
X984850Y312105
X1000450Y312105
X1016050Y312105
X1031650Y312105
X984850Y291850
X969250Y276850
X1272250Y312105
X1287850Y312105
X1303450Y312105
X1333650Y312105
X1349250Y312105
X1364850Y312105
X1380450Y312105
X1396050Y312105
X1411650Y312105
X1364850Y296850
T08
X1470650Y514350
X1522650Y514350
T09
X1515150Y476850
X1496650Y476850
X1478150Y476850
T10
X1531650Y396850
X1552650Y396850
T11
X1171650Y317105
T12
X1327850Y505850
X1445350Y505850
T13
X1296650Y486850
X1601650Y456850
X1436650Y291850
X1126650Y291850
X806650Y291850
X691650Y176850
X921650Y176850
X1011650Y176850
X1241650Y176850
X1321650Y176850
X1551650Y176850
X1436650Y61850
X1126650Y61850
X806650Y61850
X86650Y61850
X86650Y291850
M30
