G75*
%MOIN*%
%OFA0B0*%
%FSLAX25Y25*%
%IPPOS*%
%LPD*%
%AMOC8*
5,1,8,0,0,1.08239X$1,22.5*
%
%ADD10C,0.00100*%
%ADD11C,0.00500*%
D10*
X0036650Y0036850D02*
X0036650Y0090850D01*
X0005400Y0090850D01*
X0005400Y0146850D01*
X0036400Y0146850D01*
X0036400Y0160850D01*
X0005400Y0160850D01*
X0005400Y0261850D01*
X0036650Y0261850D01*
X0036650Y0316850D01*
X0125650Y0316850D01*
X0125650Y0348130D01*
X0181650Y0348130D01*
X0181650Y0317105D01*
X0195650Y0317105D01*
X0195650Y0348130D01*
X0296650Y0348130D01*
X0296650Y0316850D01*
X0875650Y0316850D01*
X0875650Y0348130D01*
X0931650Y0348130D01*
X0931650Y0317105D01*
X0945650Y0317105D01*
X0945650Y0348130D01*
X1046650Y0348130D01*
X1046650Y0316850D01*
X1131650Y0316850D01*
X1146650Y0331850D01*
X1196650Y0331850D01*
X1211650Y0316850D01*
X1255650Y0316850D01*
X1255650Y0348130D01*
X1311650Y0348130D01*
X1311650Y0317105D01*
X1325650Y0317105D01*
X1325650Y0348130D01*
X1426650Y0348130D01*
X1426650Y0316850D01*
X1506650Y0316850D01*
X1506650Y0436850D01*
X1486650Y0456850D01*
X1276650Y0456850D01*
X1276650Y0521850D01*
X1616650Y0521850D01*
X1616650Y0436850D01*
X1586650Y0406850D01*
X1586650Y0346850D01*
X1616650Y0316850D01*
X1616650Y0036850D01*
X1426650Y0036850D01*
X1426650Y0005600D01*
X1325650Y0005600D01*
X1325650Y0036600D01*
X1311650Y0036600D01*
X1311650Y0005600D01*
X1255650Y0005600D01*
X1255650Y0036850D01*
X1046650Y0036850D01*
X1046650Y0005600D01*
X0945650Y0005600D01*
X0945650Y0036600D01*
X0931650Y0036600D01*
X0931650Y0005600D01*
X0875650Y0005600D01*
X0875650Y0036850D01*
X0686650Y0036850D01*
X0686650Y0005600D01*
X0585650Y0005600D01*
X0585650Y0036600D01*
X0571650Y0036600D01*
X0571650Y0005600D01*
X0515650Y0005600D01*
X0515650Y0036850D01*
X0296650Y0036850D01*
X0296650Y0005600D01*
X0195650Y0005600D01*
X0195650Y0036600D01*
X0181650Y0036600D01*
X0181650Y0005600D01*
X0125650Y0005600D01*
X0125650Y0036850D01*
X0036650Y0036850D01*
D11*
X1551178Y0480944D02*
X1551178Y0492756D01*
X1554327Y0492756D01*
X1554327Y0480944D01*
X1551178Y0480944D01*
X1564760Y0477007D02*
X1578540Y0477007D01*
X1578540Y0473070D01*
X1564760Y0473070D01*
X1564760Y0477007D01*
X1565744Y0497086D02*
X1565744Y0500236D01*
X1577556Y0500236D01*
X1577556Y0497086D01*
X1565744Y0497086D01*
M02*
