G75*
%MOIN*%
%OFA0B0*%
%FSLAX25Y25*%
%IPPOS*%
%LPD*%
%AMOC8*
5,1,8,0,0,1.08239X$1,22.5*
%
%ADD10C,0.16992*%
%ADD11C,0.05200*%
%ADD12C,0.06496*%
%ADD13C,0.05150*%
%ADD14C,0.05937*%
%ADD15C,0.10950*%
%ADD16C,0.08850*%
%ADD17C,0.16500*%
%ADD18C,0.06750*%
%ADD19C,0.07087*%
%ADD20C,0.02400*%
%ADD21C,0.03962*%
%ADD22C,0.15614*%
%ADD23C,0.20000*%
%ADD24C,0.15000*%
%ADD25C,0.07000*%
%ADD26C,0.10000*%
%ADD27C,0.12661*%
%ADD28C,0.05000*%
%ADD29C,0.25400*%
D10*
X0086650Y0061850D03*
X0691650Y0176850D03*
X0921650Y0176850D03*
X1011650Y0176850D03*
X1241650Y0176850D03*
X1321650Y0176850D03*
X1551650Y0176850D03*
X1436650Y0061850D03*
X1126650Y0061850D03*
X0806650Y0061850D03*
X0806650Y0291850D03*
X1126650Y0291850D03*
X1436650Y0291850D03*
X1601650Y0456850D03*
X1296650Y0486850D03*
X0086650Y0291850D03*
D11*
X1286650Y0086850D03*
X1316650Y0086850D03*
X1316650Y0066850D03*
X1286650Y0066850D03*
X1360450Y0061850D03*
X1380450Y0061850D03*
X1396050Y0061850D03*
X1416050Y0061850D03*
X1576650Y0181850D03*
X1596650Y0181850D03*
X1597650Y0196850D03*
X1565650Y0196850D03*
X1576650Y0211850D03*
X1596650Y0211850D03*
X1586650Y0236850D03*
X1566650Y0236850D03*
X1565650Y0251850D03*
X1597650Y0251850D03*
X1596650Y0266850D03*
X1576650Y0266850D03*
X1566650Y0286850D03*
X1586650Y0286850D03*
X1597650Y0309350D03*
X1565650Y0309350D03*
X1561650Y0326850D03*
X1581650Y0326850D03*
X1336650Y0286850D03*
X1316650Y0286850D03*
D12*
X1396650Y0236850D03*
X1476650Y0206850D03*
X1476650Y0186850D03*
X1526650Y0186850D03*
X1526650Y0166850D03*
X1476650Y0156850D03*
X1396650Y0156850D03*
X1346650Y0156850D03*
X1346650Y0196850D03*
X1396650Y0196850D03*
X1216650Y0186850D03*
X1166650Y0186850D03*
X1166650Y0206850D03*
X1086650Y0196850D03*
X1036650Y0196850D03*
X1036650Y0156850D03*
X1086650Y0156850D03*
X1166650Y0156850D03*
X1216650Y0166850D03*
X1216650Y0126850D03*
X1346650Y0116850D03*
X1526650Y0126850D03*
X1086650Y0236850D03*
X0896650Y0186850D03*
X0846650Y0186850D03*
X0846650Y0206850D03*
X0766650Y0196850D03*
X0716650Y0196850D03*
X0716650Y0156850D03*
X0766650Y0156850D03*
X0846650Y0156850D03*
X0896650Y0166850D03*
X0896650Y0126850D03*
X1036650Y0116850D03*
X0716650Y0116850D03*
X0766650Y0236850D03*
D13*
X1552752Y0486850D03*
X1571650Y0498661D03*
D14*
X1571650Y0475039D03*
D15*
X1515150Y0476850D03*
X1496650Y0476850D03*
X1478150Y0476850D03*
D16*
X1470650Y0514350D03*
X1522650Y0514350D03*
D17*
X1445350Y0505850D03*
X1327850Y0505850D03*
D18*
X1361650Y0487350D03*
X1371650Y0487350D03*
X1381650Y0487350D03*
X1391650Y0487350D03*
X1401650Y0487350D03*
X1411650Y0487350D03*
X1411650Y0471750D03*
X1401650Y0471750D03*
X1391650Y0471750D03*
X1381650Y0471750D03*
X1371650Y0471750D03*
X1361650Y0471750D03*
D19*
X0142250Y0041600D03*
X0157850Y0041600D03*
X0173450Y0041600D03*
X0203650Y0041600D03*
X0219250Y0041600D03*
X0234850Y0041600D03*
X0250450Y0041600D03*
X0266050Y0041600D03*
X0281650Y0041600D03*
X0041400Y0107450D03*
X0041400Y0123050D03*
X0041400Y0138650D03*
X0041400Y0168850D03*
X0041400Y0184450D03*
X0041400Y0200050D03*
X0041400Y0215650D03*
X0041400Y0231250D03*
X0041400Y0246850D03*
X0219250Y0271850D03*
X0234850Y0291850D03*
X0234850Y0312105D03*
X0219250Y0312105D03*
X0203650Y0312105D03*
X0173450Y0312105D03*
X0157850Y0312105D03*
X0142250Y0312105D03*
X0250450Y0312105D03*
X0266050Y0312105D03*
X0281650Y0312105D03*
X0266050Y0251250D03*
X0250450Y0231850D03*
X0234850Y0200050D03*
X0219250Y0184450D03*
X0266050Y0161850D03*
X0532250Y0041600D03*
X0547850Y0041600D03*
X0563450Y0041600D03*
X0593650Y0041600D03*
X0609250Y0041600D03*
X0624850Y0041600D03*
X0640450Y0041600D03*
X0656050Y0041600D03*
X0671650Y0041600D03*
X0892250Y0041600D03*
X0907850Y0041600D03*
X0923450Y0041600D03*
X0953650Y0041600D03*
X0969250Y0041600D03*
X0984850Y0041600D03*
X1000450Y0041600D03*
X1016050Y0041600D03*
X1031650Y0041600D03*
X1272250Y0041600D03*
X1287850Y0041600D03*
X1303450Y0041600D03*
X1333650Y0041600D03*
X1349250Y0041600D03*
X1364850Y0041600D03*
X1380450Y0041600D03*
X1396050Y0041600D03*
X1411650Y0041600D03*
X1416650Y0111850D03*
X1380450Y0136850D03*
X1301650Y0201850D03*
X1066650Y0136850D03*
X0656050Y0141850D03*
X0640450Y0241850D03*
X0609250Y0281850D03*
X0624850Y0301850D03*
X0892250Y0312105D03*
X0907850Y0312105D03*
X0923450Y0312105D03*
X0953650Y0312105D03*
X0969250Y0312105D03*
X0984850Y0312105D03*
X1000450Y0312105D03*
X1016050Y0312105D03*
X1031650Y0312105D03*
X0984850Y0291850D03*
X0969250Y0276850D03*
X1272250Y0312105D03*
X1287850Y0312105D03*
X1303450Y0312105D03*
X1333650Y0312105D03*
X1349250Y0312105D03*
X1364850Y0312105D03*
X1380450Y0312105D03*
X1396050Y0312105D03*
X1411650Y0312105D03*
X1364850Y0296850D03*
D20*
X1316450Y0271850D02*
X1303450Y0284850D01*
X1288650Y0284850D02*
X1316650Y0256850D01*
X1451650Y0256850D01*
X1471650Y0276850D01*
X1526650Y0276850D01*
X1546650Y0296850D01*
X1521650Y0296850D02*
X1516650Y0291850D01*
X1466650Y0291850D01*
X1446650Y0271850D01*
X1316450Y0271850D01*
X1396650Y0236850D02*
X1486650Y0236850D01*
X1511650Y0261850D01*
X1286650Y0086850D02*
X1281650Y0091850D01*
X1161650Y0091850D01*
X1156650Y0096850D01*
X0928450Y0096850D01*
X0563450Y0096850D01*
X0376650Y0096850D01*
X0334850Y0138650D01*
X0173450Y0138650D01*
X0041400Y0138650D01*
X0041400Y0123050D02*
X0157850Y0123050D01*
X0305450Y0123050D01*
X0361650Y0066850D01*
X0547850Y0066850D01*
X0781650Y0066850D01*
X0796650Y0081850D01*
X0831650Y0081850D01*
X0846650Y0066850D01*
X0896650Y0066850D01*
X0911650Y0081850D01*
X0917850Y0081850D01*
X0921650Y0081850D01*
X0936650Y0066850D01*
X1106650Y0066850D01*
X1121650Y0081850D01*
X1131650Y0081850D01*
X1146650Y0066850D01*
X1286650Y0066850D01*
X1226650Y0051850D02*
X1221650Y0046850D01*
X1111650Y0046850D01*
X1106650Y0051850D01*
X0892250Y0051850D01*
X0861650Y0051850D01*
X0856650Y0046850D01*
X0786650Y0046850D01*
X0781650Y0051850D01*
X0532250Y0051850D01*
X0516650Y0051850D01*
X0336650Y0051850D01*
X0281050Y0107450D01*
X0142250Y0107450D01*
X0041400Y0107450D01*
X1371650Y0483450D02*
X1375450Y0479650D01*
X1393750Y0479650D01*
X1401650Y0471750D01*
X1371650Y0483450D02*
X1371650Y0487350D01*
D21*
X1521650Y0296850D03*
X1546650Y0296850D03*
X1511650Y0261850D03*
X1303450Y0284850D03*
X1288650Y0284850D03*
X0928450Y0096850D03*
X0917850Y0081850D03*
X0892250Y0051850D03*
X1226650Y0051850D03*
X0563450Y0096850D03*
X0547850Y0066850D03*
X0532250Y0051850D03*
X0173450Y0138650D03*
X0157850Y0123050D03*
X0142250Y0107450D03*
D22*
X1171650Y0317105D03*
D23*
X1086650Y0236850D02*
X1106650Y0216850D01*
X1106650Y0171850D01*
X1086650Y0171850D01*
X1061650Y0196850D01*
X1036650Y0196850D01*
X1106650Y0171850D02*
X1181650Y0171850D01*
X1211650Y0141850D01*
X1331650Y0141850D01*
X1336650Y0136850D01*
X1380450Y0136850D01*
X1406650Y0111850D02*
X1416650Y0111850D01*
X1406650Y0111850D02*
X1396650Y0101850D01*
X1331650Y0101850D01*
X1321650Y0111850D01*
X1186650Y0111850D01*
X1161650Y0136850D01*
X1066650Y0136850D01*
X0916650Y0136850D01*
X0911650Y0141850D01*
X0881650Y0141850D01*
X0876650Y0136850D01*
X0786650Y0136850D01*
X0766650Y0156850D01*
X0716650Y0156850D01*
X1301650Y0201850D02*
X1351650Y0201850D01*
X1386650Y0236850D01*
X1396650Y0236850D01*
D24*
X1301650Y0201850D02*
X1226650Y0276850D01*
X1151650Y0276850D01*
X1141650Y0266850D01*
X1111650Y0266850D01*
X1101650Y0276850D01*
X0969250Y0276850D01*
X0831650Y0276850D01*
X0821650Y0266850D01*
X0796650Y0266850D01*
X0781650Y0281850D01*
X0609250Y0281850D01*
X0421650Y0281850D01*
X0411650Y0271850D01*
X0219250Y0271850D01*
X0250450Y0231850D02*
X0436650Y0231850D01*
X0446650Y0241850D01*
X0640450Y0241850D01*
X0691650Y0241850D01*
X0701650Y0251850D01*
X0776650Y0251850D01*
X0786650Y0241850D01*
X0991650Y0241850D01*
X1036650Y0196850D01*
X0716650Y0156850D02*
X0701650Y0141850D01*
X0656050Y0141850D01*
X0636050Y0161850D01*
X0266050Y0161850D01*
D25*
X0219250Y0184450D02*
X0041400Y0184450D01*
X0041400Y0215650D02*
X0170450Y0215650D01*
X0186650Y0231850D01*
X0250450Y0231850D01*
X0265450Y0251850D02*
X0156650Y0251850D01*
X0136050Y0231250D01*
X0041400Y0231250D01*
X0234850Y0291850D02*
X0321650Y0291850D01*
X0331650Y0301850D01*
X0624850Y0301850D01*
X0766650Y0301850D01*
X0773350Y0308550D01*
X0839950Y0308550D01*
X0856650Y0291850D01*
X0984850Y0291850D01*
X1001650Y0291850D01*
X1006650Y0296850D01*
X1071650Y0296850D01*
X1083350Y0308550D01*
X1149950Y0308550D01*
X1161650Y0296850D01*
X1364850Y0296850D01*
X1416650Y0296850D01*
X1428350Y0308550D01*
X1449950Y0308550D01*
X1451650Y0306850D01*
X1511650Y0306850D01*
X1531650Y0326850D01*
X1531650Y0396850D01*
D26*
X1351650Y0201850D02*
X1346650Y0196850D01*
X0266650Y0251850D02*
X0266050Y0251250D01*
X0265450Y0251850D01*
D27*
X1531650Y0396850D03*
X1552650Y0396850D03*
D28*
X0234850Y0200050D02*
X0041400Y0200050D01*
D29*
X1571650Y0474850D02*
X1571650Y0475039D01*
M02*
