G75*
%MOIN*%
%OFA0B0*%
%FSLAX25Y25*%
%IPPOS*%
%LPD*%
%AMOC8*
5,1,8,0,0,1.08239X$1,22.5*
%
%ADD10C,0.02900*%
%ADD11C,0.00800*%
%ADD12C,0.00100*%
%ADD13C,0.00600*%
%ADD14C,0.01600*%
%ADD15C,0.00500*%
D10*
X0277757Y0165650D02*
X0277757Y0186768D01*
X0284797Y0179729D01*
X0291836Y0186768D01*
X0291836Y0165650D01*
X0299856Y0169170D02*
X0303376Y0165650D01*
X0310415Y0165650D01*
X0313935Y0169170D01*
X0313935Y0183248D01*
X0310415Y0186768D01*
X0303376Y0186768D01*
X0299856Y0183248D01*
X0299856Y0169170D01*
X0321955Y0169170D02*
X0325475Y0165650D01*
X0332514Y0165650D01*
X0336034Y0169170D01*
X0336034Y0183248D01*
X0332514Y0186768D01*
X0325475Y0186768D01*
X0321955Y0183248D01*
X0343563Y0169170D02*
X0343563Y0165650D01*
X0347083Y0165650D01*
X0347083Y0169170D01*
X0343563Y0169170D01*
X0355103Y0165650D02*
X0369182Y0165650D01*
X0369182Y0186768D01*
X0355103Y0186768D01*
X0362143Y0176209D02*
X0369182Y0176209D01*
X0377202Y0176209D02*
X0380722Y0172689D01*
X0391281Y0172689D01*
X0391281Y0165650D02*
X0391281Y0186768D01*
X0380722Y0186768D01*
X0377202Y0183248D01*
X0377202Y0176209D01*
X0384241Y0172689D02*
X0377202Y0165650D01*
X0399301Y0165650D02*
X0399301Y0179729D01*
X0406340Y0186768D01*
X0413380Y0179729D01*
X0413380Y0165650D01*
X0421400Y0165650D02*
X0428439Y0172689D01*
X0435479Y0165650D01*
X0435479Y0186768D01*
X0443499Y0186768D02*
X0457577Y0186768D01*
X0450538Y0186768D02*
X0450538Y0165650D01*
X0421400Y0165650D02*
X0421400Y0186768D01*
X0413380Y0176209D02*
X0399301Y0176209D01*
X0465598Y0186768D02*
X0479676Y0186768D01*
X0479676Y0165650D01*
X0487697Y0169170D02*
X0487697Y0183248D01*
X0491216Y0186768D01*
X0498256Y0186768D01*
X0501775Y0183248D01*
X0501775Y0169170D01*
X0498256Y0165650D01*
X0491216Y0165650D01*
X0487697Y0169170D01*
X0479676Y0176209D02*
X0472637Y0176209D01*
X0509795Y0172689D02*
X0509795Y0169170D01*
X0513315Y0165650D01*
X0520354Y0165650D01*
X0523874Y0169170D01*
X0520354Y0176209D02*
X0513315Y0176209D01*
X0509795Y0172689D01*
X0520354Y0176209D02*
X0523874Y0179729D01*
X0523874Y0183248D01*
X0520354Y0186768D01*
X0513315Y0186768D01*
X0509795Y0183248D01*
X0531894Y0186768D02*
X0531894Y0165650D01*
X0545973Y0165650D02*
X0545973Y0186768D01*
X0553993Y0183248D02*
X0557513Y0186768D01*
X0564552Y0186768D01*
X0568072Y0183248D01*
X0568072Y0169170D01*
X0564552Y0165650D01*
X0557513Y0165650D01*
X0553993Y0169170D01*
X0553993Y0183248D01*
X0545973Y0176209D02*
X0531894Y0176209D01*
X0575765Y0165650D02*
X0582804Y0165650D01*
X0579285Y0165650D02*
X0579285Y0186768D01*
X0582804Y0186768D02*
X0575765Y0186768D01*
X0590825Y0183248D02*
X0594344Y0186768D01*
X0604903Y0186768D01*
X0604903Y0165650D01*
X0594344Y0165650D01*
X0590825Y0169170D01*
X0590825Y0183248D01*
X0612924Y0186768D02*
X0612924Y0169170D01*
X0616443Y0165650D01*
X0623483Y0165650D01*
X0627002Y0169170D01*
X0627002Y0186768D01*
X0635022Y0186768D02*
X0649101Y0186768D01*
X0642062Y0186768D02*
X0642062Y0165650D01*
X0657121Y0169170D02*
X0660641Y0165650D01*
X0667680Y0165650D01*
X0671200Y0169170D01*
X0667680Y0176209D02*
X0660641Y0176209D01*
X0657121Y0172689D01*
X0657121Y0169170D01*
X0667680Y0176209D02*
X0671200Y0179729D01*
X0671200Y0183248D01*
X0667680Y0186768D01*
X0660641Y0186768D01*
X0657121Y0183248D01*
D11*
X0617250Y0155103D02*
X0615182Y0157171D01*
X0613113Y0158205D01*
X0610805Y0158205D02*
X0610805Y0152000D01*
X0608736Y0154068D01*
X0606668Y0152000D01*
X0606668Y0158205D01*
X0604359Y0158205D02*
X0604359Y0152000D01*
X0600222Y0152000D01*
X0597914Y0153034D02*
X0596879Y0152000D01*
X0594811Y0152000D01*
X0593777Y0153034D01*
X0593777Y0154068D01*
X0594811Y0155103D01*
X0596879Y0155103D01*
X0597914Y0156137D01*
X0597914Y0157171D01*
X0596879Y0158205D01*
X0594811Y0158205D01*
X0593777Y0157171D01*
X0591468Y0155103D02*
X0587331Y0155103D01*
X0585023Y0157171D02*
X0583988Y0158205D01*
X0581920Y0158205D01*
X0580886Y0157171D01*
X0580886Y0156137D01*
X0581920Y0155103D01*
X0580886Y0154068D01*
X0580886Y0153034D01*
X0581920Y0152000D01*
X0583988Y0152000D01*
X0585023Y0153034D01*
X0582954Y0155103D02*
X0581920Y0155103D01*
X0578577Y0157171D02*
X0578577Y0153034D01*
X0574440Y0157171D01*
X0574440Y0153034D01*
X0575474Y0152000D01*
X0577543Y0152000D01*
X0578577Y0153034D01*
X0578577Y0157171D02*
X0577543Y0158205D01*
X0575474Y0158205D01*
X0574440Y0157171D01*
X0572132Y0158205D02*
X0572132Y0152000D01*
X0570063Y0154068D01*
X0567995Y0152000D01*
X0567995Y0158205D01*
X0559241Y0158205D02*
X0559241Y0152000D01*
X0559241Y0154068D02*
X0556138Y0154068D01*
X0555104Y0155103D01*
X0555104Y0157171D01*
X0556138Y0158205D01*
X0559241Y0158205D01*
X0557172Y0154068D02*
X0555104Y0152000D01*
X0552795Y0153034D02*
X0551761Y0152000D01*
X0549692Y0152000D01*
X0548658Y0153034D01*
X0548658Y0157171D01*
X0549692Y0158205D01*
X0551761Y0158205D01*
X0552795Y0157171D01*
X0552795Y0156137D01*
X0551761Y0155103D01*
X0548658Y0155103D01*
X0539904Y0155103D02*
X0537836Y0156137D01*
X0536801Y0156137D01*
X0535767Y0155103D01*
X0535767Y0153034D01*
X0536801Y0152000D01*
X0538870Y0152000D01*
X0539904Y0153034D01*
X0539904Y0155103D02*
X0539904Y0158205D01*
X0535767Y0158205D01*
X0529322Y0158205D02*
X0533459Y0152000D01*
X0527013Y0152000D02*
X0522876Y0156137D01*
X0522876Y0157171D01*
X0523910Y0158205D01*
X0525979Y0158205D01*
X0527013Y0157171D01*
X0527013Y0152000D02*
X0522876Y0152000D01*
X0520568Y0152000D02*
X0516431Y0156137D01*
X0516431Y0157171D01*
X0517465Y0158205D01*
X0519533Y0158205D01*
X0520568Y0157171D01*
X0520568Y0152000D02*
X0516431Y0152000D01*
X0507677Y0152000D02*
X0504574Y0152000D01*
X0503540Y0153034D01*
X0503540Y0157171D01*
X0504574Y0158205D01*
X0507677Y0158205D01*
X0507677Y0152000D01*
X0501231Y0153034D02*
X0501231Y0157171D01*
X0500197Y0158205D01*
X0498128Y0158205D01*
X0497094Y0157171D01*
X0497094Y0153034D02*
X0498128Y0152000D01*
X0500197Y0152000D01*
X0501231Y0153034D01*
X0488340Y0154068D02*
X0488340Y0156137D01*
X0486272Y0158205D01*
X0484043Y0158205D02*
X0484043Y0152000D01*
X0481975Y0154068D01*
X0479906Y0152000D01*
X0479906Y0158205D01*
X0477598Y0158205D02*
X0475529Y0158205D01*
X0476563Y0158205D02*
X0476563Y0152000D01*
X0475529Y0152000D02*
X0477598Y0152000D01*
X0471232Y0152000D02*
X0471232Y0158205D01*
X0469164Y0158205D02*
X0473301Y0158205D01*
X0466855Y0158205D02*
X0466855Y0152000D01*
X0466855Y0155103D02*
X0462718Y0155103D01*
X0462718Y0158205D02*
X0462718Y0152000D01*
X0453964Y0158205D02*
X0449827Y0158205D01*
X0451896Y0158205D02*
X0451896Y0152000D01*
X0447519Y0152000D02*
X0447519Y0158205D01*
X0447519Y0155103D02*
X0443382Y0155103D01*
X0441073Y0155103D02*
X0436936Y0155103D01*
X0436936Y0156137D02*
X0436936Y0152000D01*
X0434628Y0152000D02*
X0434628Y0158205D01*
X0430491Y0152000D01*
X0430491Y0158205D01*
X0428182Y0158205D02*
X0428182Y0152000D01*
X0428182Y0154068D02*
X0424045Y0158205D01*
X0421737Y0157171D02*
X0421737Y0156137D01*
X0420702Y0155103D01*
X0418634Y0155103D01*
X0417600Y0154068D01*
X0417600Y0153034D01*
X0418634Y0152000D01*
X0420702Y0152000D01*
X0421737Y0153034D01*
X0424045Y0152000D02*
X0427148Y0155103D01*
X0421737Y0157171D02*
X0420702Y0158205D01*
X0418634Y0158205D01*
X0417600Y0157171D01*
X0408846Y0158205D02*
X0404709Y0158205D01*
X0406777Y0158205D02*
X0406777Y0152000D01*
X0402400Y0153034D02*
X0402400Y0157171D01*
X0401366Y0158205D01*
X0399297Y0158205D01*
X0398263Y0157171D01*
X0398263Y0153034D01*
X0399297Y0152000D01*
X0401366Y0152000D01*
X0402400Y0153034D01*
X0389509Y0152000D02*
X0386406Y0152000D01*
X0385372Y0153034D01*
X0385372Y0157171D01*
X0386406Y0158205D01*
X0389509Y0158205D01*
X0389509Y0152000D01*
X0383064Y0152000D02*
X0382029Y0152000D01*
X0382029Y0153034D01*
X0383064Y0153034D01*
X0383064Y0152000D01*
X0373395Y0152000D02*
X0370293Y0152000D01*
X0369259Y0153034D01*
X0369259Y0154068D01*
X0370293Y0155103D01*
X0373395Y0155103D01*
X0370293Y0155103D02*
X0369259Y0156137D01*
X0369259Y0157171D01*
X0370293Y0158205D01*
X0373395Y0158205D01*
X0373395Y0152000D01*
X0366950Y0152000D02*
X0366950Y0158205D01*
X0363847Y0158205D01*
X0362813Y0157171D01*
X0362813Y0155103D01*
X0363847Y0154068D01*
X0366950Y0154068D01*
X0364881Y0154068D02*
X0362813Y0152000D01*
X0360504Y0153034D02*
X0359470Y0152000D01*
X0357402Y0152000D01*
X0356368Y0153034D01*
X0356368Y0157171D01*
X0357402Y0158205D01*
X0359470Y0158205D01*
X0360504Y0157171D01*
X0360504Y0153034D01*
X0354059Y0152000D02*
X0354059Y0158205D01*
X0349922Y0158205D02*
X0349922Y0152000D01*
X0351990Y0154068D01*
X0354059Y0152000D01*
X0347613Y0152000D02*
X0347613Y0158205D01*
X0343477Y0152000D01*
X0343477Y0158205D01*
X0341168Y0158205D02*
X0339099Y0156137D01*
X0339099Y0154068D01*
X0341168Y0152000D01*
X0436936Y0156137D02*
X0439005Y0158205D01*
X0441073Y0156137D01*
X0441073Y0152000D01*
X0443382Y0152000D02*
X0443382Y0158205D01*
X0486272Y0152000D02*
X0488340Y0154068D01*
X0613113Y0154068D02*
X0614147Y0155103D01*
X0617250Y0155103D01*
X0617250Y0153034D01*
X0616216Y0152000D01*
X0614147Y0152000D01*
X0613113Y0153034D01*
X0613113Y0154068D01*
D12*
X0036650Y0090850D02*
X0036650Y0036850D01*
X0125650Y0036850D01*
X0125650Y0005600D01*
X0181650Y0005600D01*
X0181650Y0036600D01*
X0195650Y0036600D01*
X0195650Y0005600D01*
X0296650Y0005600D01*
X0296650Y0036850D01*
X0515650Y0036850D01*
X0515650Y0005600D01*
X0571650Y0005600D01*
X0571650Y0036600D01*
X0585650Y0036600D01*
X0585650Y0005600D01*
X0686650Y0005600D01*
X0686650Y0036850D01*
X0875650Y0036850D01*
X0875650Y0005600D01*
X0931650Y0005600D01*
X0931650Y0036600D01*
X0945650Y0036600D01*
X0945650Y0005600D01*
X1046650Y0005600D01*
X1046650Y0036850D01*
X1255650Y0036850D01*
X1255650Y0005600D01*
X1311650Y0005600D01*
X1311650Y0036600D01*
X1325650Y0036600D01*
X1325650Y0005600D01*
X1426650Y0005600D01*
X1426650Y0036850D01*
X1616650Y0036850D01*
X1616650Y0316850D01*
X1586650Y0346850D01*
X1586650Y0406850D01*
X1616650Y0436850D01*
X1616650Y0521850D01*
X1276650Y0521850D01*
X1276650Y0456850D01*
X1486650Y0456850D01*
X1506650Y0436850D01*
X1506650Y0316850D01*
X1426650Y0316850D01*
X1426650Y0348130D01*
X1325650Y0348130D01*
X1325650Y0317105D01*
X1311650Y0317105D01*
X1311650Y0348130D01*
X1255650Y0348130D01*
X1255650Y0316850D01*
X1211650Y0316850D01*
X1196650Y0331850D01*
X1146650Y0331850D01*
X1131650Y0316850D01*
X1046650Y0316850D01*
X1046650Y0348130D01*
X0945650Y0348130D01*
X0945650Y0317105D01*
X0931650Y0317105D01*
X0931650Y0348130D01*
X0875650Y0348130D01*
X0875650Y0316850D01*
X0296650Y0316850D01*
X0296650Y0348130D01*
X0195650Y0348130D01*
X0195650Y0317105D01*
X0181650Y0317105D01*
X0181650Y0348130D01*
X0125650Y0348130D01*
X0125650Y0316850D01*
X0036650Y0316850D01*
X0036650Y0261850D01*
X0005400Y0261850D01*
X0005400Y0160850D01*
X0036400Y0160850D01*
X0036400Y0146850D01*
X0005400Y0146850D01*
X0005400Y0090850D01*
X0036650Y0090850D01*
D13*
X0139700Y0114150D02*
X0144104Y0114150D01*
X0139700Y0117086D01*
X0144104Y0117086D01*
X0143370Y0118754D02*
X0140434Y0118754D01*
X0139700Y0119488D01*
X0139700Y0120956D01*
X0140434Y0121690D01*
X0143370Y0121690D02*
X0144104Y0120956D01*
X0144104Y0119488D01*
X0143370Y0118754D01*
X0155700Y0127384D02*
X0156434Y0126650D01*
X0155700Y0127384D02*
X0155700Y0128852D01*
X0156434Y0129586D01*
X0157168Y0129586D01*
X0157902Y0128852D01*
X0157902Y0127384D01*
X0158636Y0126650D01*
X0159370Y0126650D01*
X0160104Y0127384D01*
X0160104Y0128852D01*
X0159370Y0129586D01*
X0160104Y0131254D02*
X0160104Y0133456D01*
X0159370Y0134190D01*
X0156434Y0134190D01*
X0155700Y0133456D01*
X0155700Y0131254D01*
X0160104Y0131254D01*
X0158636Y0135858D02*
X0160104Y0137326D01*
X0158636Y0138794D01*
X0155700Y0138794D01*
X0157902Y0138794D02*
X0157902Y0135858D01*
X0158636Y0135858D02*
X0155700Y0135858D01*
X0171900Y0143884D02*
X0172634Y0143150D01*
X0171900Y0143884D02*
X0171900Y0145352D01*
X0172634Y0146086D01*
X0173368Y0146086D01*
X0174102Y0145352D01*
X0174102Y0143884D01*
X0174836Y0143150D01*
X0175570Y0143150D01*
X0176304Y0143884D01*
X0176304Y0145352D01*
X0175570Y0146086D01*
X0175570Y0147754D02*
X0172634Y0147754D01*
X0171900Y0148488D01*
X0171900Y0149956D01*
X0172634Y0150690D01*
X0171900Y0152358D02*
X0171900Y0155294D01*
X0171900Y0152358D02*
X0176304Y0152358D01*
X0175570Y0150690D02*
X0176304Y0149956D01*
X0176304Y0148488D01*
X0175570Y0147754D01*
X0218434Y0191150D02*
X0217700Y0191884D01*
X0217700Y0193352D01*
X0218434Y0194086D01*
X0219902Y0194086D01*
X0220636Y0193352D01*
X0220636Y0192618D01*
X0219902Y0191150D01*
X0222104Y0191150D01*
X0222104Y0194086D01*
X0222104Y0195754D02*
X0219168Y0195754D01*
X0217700Y0197222D01*
X0219168Y0198690D01*
X0222104Y0198690D01*
X0219902Y0200358D02*
X0219902Y0203294D01*
X0221370Y0201826D02*
X0218434Y0201826D01*
X0232700Y0207150D02*
X0232700Y0210086D01*
X0232700Y0208618D02*
X0237104Y0208618D01*
X0235636Y0207150D01*
X0236370Y0211754D02*
X0237104Y0212488D01*
X0237104Y0213956D01*
X0236370Y0214690D01*
X0235636Y0214690D01*
X0232700Y0211754D01*
X0232700Y0214690D01*
X0234168Y0216358D02*
X0232700Y0217826D01*
X0234168Y0219294D01*
X0237104Y0219294D01*
X0234902Y0220962D02*
X0234902Y0223898D01*
X0236370Y0222430D02*
X0233434Y0222430D01*
X0234168Y0216358D02*
X0237104Y0216358D01*
X0248700Y0238150D02*
X0248700Y0241086D01*
X0248700Y0239618D02*
X0253104Y0239618D01*
X0251636Y0238150D01*
X0250902Y0242754D02*
X0251636Y0244222D01*
X0251636Y0244956D01*
X0250902Y0245690D01*
X0249434Y0245690D01*
X0248700Y0244956D01*
X0248700Y0243488D01*
X0249434Y0242754D01*
X0250902Y0242754D02*
X0253104Y0242754D01*
X0253104Y0245690D01*
X0253104Y0247358D02*
X0250168Y0247358D01*
X0248700Y0248826D01*
X0250168Y0250294D01*
X0253104Y0250294D01*
X0250902Y0251962D02*
X0250902Y0254898D01*
X0252370Y0253430D02*
X0249434Y0253430D01*
X0263700Y0258150D02*
X0263700Y0261086D01*
X0263700Y0259618D02*
X0268104Y0259618D01*
X0266636Y0258150D01*
X0265902Y0262754D02*
X0266636Y0264222D01*
X0266636Y0264956D01*
X0265902Y0265690D01*
X0264434Y0265690D01*
X0263700Y0264956D01*
X0263700Y0263488D01*
X0264434Y0262754D01*
X0265902Y0262754D02*
X0268104Y0262754D01*
X0268104Y0265690D01*
X0268104Y0267358D02*
X0265168Y0267358D01*
X0263700Y0268826D01*
X0265168Y0270294D01*
X0268104Y0270294D01*
X0265902Y0271962D02*
X0265902Y0274898D01*
X0607000Y0266322D02*
X0608468Y0267790D01*
X0611404Y0267790D01*
X0609202Y0269458D02*
X0609202Y0272394D01*
X0610670Y0270926D02*
X0607734Y0270926D01*
X0607000Y0266322D02*
X0608468Y0264854D01*
X0611404Y0264854D01*
X0611404Y0263186D02*
X0611404Y0260250D01*
X0609202Y0260250D01*
X0609936Y0261718D01*
X0609936Y0262452D01*
X0609202Y0263186D01*
X0607734Y0263186D01*
X0607000Y0262452D01*
X0607000Y0260984D01*
X0607734Y0260250D01*
X0622700Y0277150D02*
X0622700Y0280086D01*
X0622700Y0278618D02*
X0627104Y0278618D01*
X0625636Y0277150D01*
X0626370Y0281754D02*
X0627104Y0282488D01*
X0627104Y0283956D01*
X0626370Y0284690D01*
X0625636Y0284690D01*
X0622700Y0281754D01*
X0622700Y0284690D01*
X0624168Y0286358D02*
X0622700Y0287826D01*
X0624168Y0289294D01*
X0627104Y0289294D01*
X0624902Y0290962D02*
X0624902Y0293898D01*
X0626370Y0292430D02*
X0623434Y0292430D01*
X0624168Y0286358D02*
X0627104Y0286358D01*
X0640902Y0234898D02*
X0640902Y0231962D01*
X0640168Y0230294D02*
X0643104Y0230294D01*
X0640168Y0230294D02*
X0638700Y0228826D01*
X0640168Y0227358D01*
X0643104Y0227358D01*
X0643104Y0225690D02*
X0643104Y0222754D01*
X0640902Y0222754D01*
X0641636Y0224222D01*
X0641636Y0224956D01*
X0640902Y0225690D01*
X0639434Y0225690D01*
X0638700Y0224956D01*
X0638700Y0223488D01*
X0639434Y0222754D01*
X0638700Y0221086D02*
X0638700Y0218150D01*
X0638700Y0219618D02*
X0643104Y0219618D01*
X0641636Y0218150D01*
X0642370Y0233430D02*
X0639434Y0233430D01*
X0889700Y0294150D02*
X0894104Y0294150D01*
X0889700Y0297086D01*
X0894104Y0297086D01*
X0893370Y0298754D02*
X0890434Y0298754D01*
X0889700Y0299488D01*
X0889700Y0300956D01*
X0890434Y0301690D01*
X0893370Y0301690D02*
X0894104Y0300956D01*
X0894104Y0299488D01*
X0893370Y0298754D01*
X0906400Y0299256D02*
X0907134Y0299990D01*
X0910070Y0299990D01*
X0910804Y0299256D01*
X0910804Y0297054D01*
X0906400Y0297054D01*
X0906400Y0299256D01*
X0906400Y0301658D02*
X0909336Y0301658D01*
X0910804Y0303126D01*
X0909336Y0304594D01*
X0906400Y0304594D01*
X0908602Y0304594D02*
X0908602Y0301658D01*
X0907868Y0295386D02*
X0907134Y0295386D01*
X0906400Y0294652D01*
X0906400Y0293184D01*
X0907134Y0292450D01*
X0908602Y0293184D02*
X0908602Y0294652D01*
X0907868Y0295386D01*
X0910070Y0295386D02*
X0910804Y0294652D01*
X0910804Y0293184D01*
X0910070Y0292450D01*
X0909336Y0292450D01*
X0908602Y0293184D01*
X0921400Y0293184D02*
X0922134Y0292450D01*
X0921400Y0293184D02*
X0921400Y0294652D01*
X0922134Y0295386D01*
X0922868Y0295386D01*
X0923602Y0294652D01*
X0923602Y0293184D01*
X0924336Y0292450D01*
X0925070Y0292450D01*
X0925804Y0293184D01*
X0925804Y0294652D01*
X0925070Y0295386D01*
X0925070Y0297054D02*
X0922134Y0297054D01*
X0921400Y0297788D01*
X0921400Y0299256D01*
X0922134Y0299990D01*
X0921400Y0301658D02*
X0921400Y0304594D01*
X0921400Y0301658D02*
X0925804Y0301658D01*
X0925070Y0299990D02*
X0925804Y0299256D01*
X0925804Y0297788D01*
X0925070Y0297054D01*
X0951600Y0298058D02*
X0956004Y0298058D01*
X0951600Y0300994D01*
X0956004Y0300994D01*
X0956004Y0302662D02*
X0951600Y0302662D01*
X0951600Y0304864D01*
X0952334Y0305598D01*
X0955270Y0305598D01*
X0956004Y0304864D01*
X0956004Y0302662D01*
X0955270Y0296390D02*
X0956004Y0295656D01*
X0956004Y0294188D01*
X0955270Y0293454D01*
X0952334Y0293454D01*
X0951600Y0294188D01*
X0951600Y0295656D01*
X0952334Y0296390D01*
X0953802Y0296390D01*
X0953802Y0294922D01*
X0951600Y0291786D02*
X0956004Y0291786D01*
X0956004Y0288850D02*
X0951600Y0288850D01*
X0951600Y0291786D02*
X0956004Y0288850D01*
X0967600Y0289222D02*
X0969068Y0290690D01*
X0972004Y0290690D01*
X0969802Y0292358D02*
X0969802Y0295294D01*
X0971270Y0293826D02*
X0968334Y0293826D01*
X0967600Y0289222D02*
X0969068Y0287754D01*
X0972004Y0287754D01*
X0972004Y0286086D02*
X0972004Y0283150D01*
X0969802Y0283150D01*
X0970536Y0284618D01*
X0970536Y0285352D01*
X0969802Y0286086D01*
X0968334Y0286086D01*
X0967600Y0285352D01*
X0967600Y0283884D01*
X0968334Y0283150D01*
X0983434Y0282430D02*
X0986370Y0282430D01*
X0984902Y0280962D02*
X0984902Y0283898D01*
X0984168Y0279294D02*
X0987104Y0279294D01*
X0984168Y0279294D02*
X0982700Y0277826D01*
X0984168Y0276358D01*
X0987104Y0276358D01*
X0986370Y0274690D02*
X0987104Y0273956D01*
X0987104Y0272488D01*
X0986370Y0271754D01*
X0986370Y0274690D02*
X0985636Y0274690D01*
X0982700Y0271754D01*
X0982700Y0274690D01*
X0982700Y0270086D02*
X0982700Y0267150D01*
X0982700Y0268618D02*
X0987104Y0268618D01*
X0985636Y0267150D01*
X0998700Y0283150D02*
X0998700Y0286086D01*
X0998700Y0284618D02*
X1003104Y0284618D01*
X1001636Y0283150D01*
X1000902Y0287754D02*
X1001636Y0289222D01*
X1001636Y0289956D01*
X1000902Y0290690D01*
X0999434Y0290690D01*
X0998700Y0289956D01*
X0998700Y0288488D01*
X0999434Y0287754D01*
X1000902Y0287754D02*
X1003104Y0287754D01*
X1003104Y0290690D01*
X1003104Y0292358D02*
X1000168Y0292358D01*
X0998700Y0293826D01*
X1000168Y0295294D01*
X1003104Y0295294D01*
X1000902Y0296962D02*
X1000902Y0299898D01*
X1002370Y0298430D02*
X0999434Y0298430D01*
X1013700Y0298826D02*
X1015168Y0300294D01*
X1018104Y0300294D01*
X1015902Y0301962D02*
X1015902Y0304898D01*
X1013700Y0298826D02*
X1015168Y0297358D01*
X1018104Y0297358D01*
X1018104Y0295690D02*
X1018104Y0292754D01*
X1015902Y0292754D01*
X1016636Y0294222D01*
X1016636Y0294956D01*
X1015902Y0295690D01*
X1014434Y0295690D01*
X1013700Y0294956D01*
X1013700Y0293488D01*
X1014434Y0292754D01*
X1013700Y0291086D02*
X1013700Y0288150D01*
X1013700Y0289618D02*
X1018104Y0289618D01*
X1016636Y0288150D01*
X1029700Y0288884D02*
X1030434Y0288150D01*
X1033370Y0288150D01*
X1034104Y0288884D01*
X1034104Y0290352D01*
X1033370Y0291086D01*
X1030434Y0291086D01*
X1029700Y0290352D01*
X1029700Y0288884D01*
X1031168Y0289618D02*
X1029700Y0291086D01*
X1030434Y0292754D02*
X1029700Y0293488D01*
X1029700Y0294956D01*
X1030434Y0295690D01*
X1031902Y0295690D01*
X1031902Y0294222D01*
X1033370Y0295690D02*
X1034104Y0294956D01*
X1034104Y0293488D01*
X1033370Y0292754D01*
X1030434Y0292754D01*
X1029700Y0297358D02*
X1034104Y0297358D01*
X1029700Y0300294D01*
X1034104Y0300294D01*
X1034104Y0301962D02*
X1034104Y0304164D01*
X1033370Y0304898D01*
X1030434Y0304898D01*
X1029700Y0304164D01*
X1029700Y0301962D01*
X1034104Y0301962D01*
X1134095Y0311400D02*
X1134095Y0314336D01*
X1135562Y0315804D01*
X1137030Y0314336D01*
X1137030Y0311400D01*
X1138698Y0311400D02*
X1138698Y0315804D01*
X1137030Y0313602D02*
X1134095Y0313602D01*
X1138698Y0311400D02*
X1141634Y0315804D01*
X1141634Y0311400D01*
X1143302Y0311400D02*
X1143302Y0314336D01*
X1144770Y0315804D01*
X1146238Y0314336D01*
X1146238Y0311400D01*
X1147906Y0311400D02*
X1147906Y0315804D01*
X1148640Y0318000D02*
X1147906Y0318734D01*
X1147906Y0321670D01*
X1148640Y0322404D01*
X1150842Y0322404D01*
X1150842Y0318000D01*
X1148640Y0318000D01*
X1150842Y0315804D02*
X1147906Y0311400D01*
X1146238Y0313602D02*
X1143302Y0313602D01*
X1150842Y0311400D02*
X1150842Y0315804D01*
X1152510Y0314336D02*
X1152510Y0311400D01*
X1152510Y0313602D02*
X1155446Y0313602D01*
X1155446Y0314336D02*
X1153978Y0315804D01*
X1152510Y0314336D01*
X1155446Y0314336D02*
X1155446Y0311400D01*
X1157114Y0312134D02*
X1157848Y0311400D01*
X1160050Y0311400D01*
X1160050Y0315804D01*
X1157848Y0315804D01*
X1157114Y0315070D01*
X1157114Y0314336D01*
X1157848Y0313602D01*
X1160050Y0313602D01*
X1157848Y0313602D02*
X1157114Y0312868D01*
X1157114Y0312134D01*
X1157848Y0318000D02*
X1157114Y0318734D01*
X1157114Y0320202D01*
X1158582Y0320202D01*
X1157114Y0321670D02*
X1157848Y0322404D01*
X1159316Y0322404D01*
X1160050Y0321670D01*
X1160050Y0318734D01*
X1159316Y0318000D01*
X1157848Y0318000D01*
X1155446Y0318000D02*
X1155446Y0322404D01*
X1152510Y0318000D01*
X1152510Y0322404D01*
X1269700Y0300956D02*
X1270434Y0301690D01*
X1269700Y0300956D02*
X1269700Y0299488D01*
X1270434Y0298754D01*
X1273370Y0298754D01*
X1274104Y0299488D01*
X1274104Y0300956D01*
X1273370Y0301690D01*
X1274104Y0297086D02*
X1269700Y0297086D01*
X1274104Y0294150D01*
X1269700Y0294150D01*
X1287000Y0293154D02*
X1287000Y0295356D01*
X1287734Y0296090D01*
X1290670Y0296090D01*
X1291404Y0295356D01*
X1291404Y0293154D01*
X1287000Y0293154D01*
X1287734Y0291486D02*
X1287000Y0290752D01*
X1287000Y0289284D01*
X1287734Y0288550D01*
X1289202Y0289284D02*
X1289202Y0290752D01*
X1288468Y0291486D01*
X1287734Y0291486D01*
X1289202Y0289284D02*
X1289936Y0288550D01*
X1290670Y0288550D01*
X1291404Y0289284D01*
X1291404Y0290752D01*
X1290670Y0291486D01*
X1301300Y0290452D02*
X1301300Y0288984D01*
X1302034Y0288250D01*
X1303502Y0288984D02*
X1303502Y0290452D01*
X1302768Y0291186D01*
X1302034Y0291186D01*
X1301300Y0290452D01*
X1302034Y0292854D02*
X1301300Y0293588D01*
X1301300Y0295056D01*
X1302034Y0295790D01*
X1301300Y0297458D02*
X1301300Y0300394D01*
X1301300Y0297458D02*
X1305704Y0297458D01*
X1304970Y0295790D02*
X1305704Y0295056D01*
X1305704Y0293588D01*
X1304970Y0292854D01*
X1302034Y0292854D01*
X1304970Y0291186D02*
X1305704Y0290452D01*
X1305704Y0288984D01*
X1304970Y0288250D01*
X1304236Y0288250D01*
X1303502Y0288984D01*
X1291404Y0299226D02*
X1289936Y0300694D01*
X1287000Y0300694D01*
X1289202Y0300694D02*
X1289202Y0297758D01*
X1289936Y0297758D02*
X1291404Y0299226D01*
X1289936Y0297758D02*
X1287000Y0297758D01*
X1347200Y0299322D02*
X1348668Y0300790D01*
X1351604Y0300790D01*
X1349402Y0302458D02*
X1349402Y0305394D01*
X1350870Y0303926D02*
X1347934Y0303926D01*
X1347200Y0299322D02*
X1348668Y0297854D01*
X1351604Y0297854D01*
X1351604Y0296186D02*
X1351604Y0293250D01*
X1349402Y0293250D01*
X1350136Y0294718D01*
X1350136Y0295452D01*
X1349402Y0296186D01*
X1347934Y0296186D01*
X1347200Y0295452D01*
X1347200Y0293984D01*
X1347934Y0293250D01*
X1363634Y0287630D02*
X1366570Y0287630D01*
X1365102Y0286162D02*
X1365102Y0289098D01*
X1364368Y0284494D02*
X1367304Y0284494D01*
X1364368Y0284494D02*
X1362900Y0283026D01*
X1364368Y0281558D01*
X1367304Y0281558D01*
X1366570Y0279890D02*
X1367304Y0279156D01*
X1367304Y0277688D01*
X1366570Y0276954D01*
X1366570Y0279890D02*
X1365836Y0279890D01*
X1362900Y0276954D01*
X1362900Y0279890D01*
X1362900Y0275286D02*
X1362900Y0272350D01*
X1362900Y0273818D02*
X1367304Y0273818D01*
X1365836Y0272350D01*
X1378800Y0287350D02*
X1378800Y0290286D01*
X1378800Y0288818D02*
X1383204Y0288818D01*
X1381736Y0287350D01*
X1381002Y0291954D02*
X1381736Y0293422D01*
X1381736Y0294156D01*
X1381002Y0294890D01*
X1379534Y0294890D01*
X1378800Y0294156D01*
X1378800Y0292688D01*
X1379534Y0291954D01*
X1381002Y0291954D02*
X1383204Y0291954D01*
X1383204Y0294890D01*
X1383204Y0296558D02*
X1380268Y0296558D01*
X1378800Y0298026D01*
X1380268Y0299494D01*
X1383204Y0299494D01*
X1381002Y0301162D02*
X1381002Y0304098D01*
X1382470Y0302630D02*
X1379534Y0302630D01*
X1394700Y0298926D02*
X1396168Y0300394D01*
X1399104Y0300394D01*
X1396902Y0302062D02*
X1396902Y0304998D01*
X1394700Y0298926D02*
X1396168Y0297458D01*
X1399104Y0297458D01*
X1399104Y0295790D02*
X1399104Y0292854D01*
X1396902Y0292854D01*
X1397636Y0294322D01*
X1397636Y0295056D01*
X1396902Y0295790D01*
X1395434Y0295790D01*
X1394700Y0295056D01*
X1394700Y0293588D01*
X1395434Y0292854D01*
X1394700Y0291186D02*
X1394700Y0288250D01*
X1394700Y0289718D02*
X1399104Y0289718D01*
X1397636Y0288250D01*
X1409700Y0288884D02*
X1410434Y0288150D01*
X1413370Y0288150D01*
X1414104Y0288884D01*
X1414104Y0290352D01*
X1413370Y0291086D01*
X1410434Y0291086D01*
X1409700Y0290352D01*
X1409700Y0288884D01*
X1411168Y0289618D02*
X1409700Y0291086D01*
X1410434Y0292754D02*
X1409700Y0293488D01*
X1409700Y0294956D01*
X1410434Y0295690D01*
X1411902Y0295690D01*
X1411902Y0294222D01*
X1413370Y0295690D02*
X1414104Y0294956D01*
X1414104Y0293488D01*
X1413370Y0292754D01*
X1410434Y0292754D01*
X1409700Y0297358D02*
X1414104Y0297358D01*
X1409700Y0300294D01*
X1414104Y0300294D01*
X1414104Y0301962D02*
X1414104Y0304164D01*
X1413370Y0304898D01*
X1410434Y0304898D01*
X1409700Y0304164D01*
X1409700Y0301962D01*
X1414104Y0301962D01*
X1510234Y0275726D02*
X1513170Y0275726D01*
X1511702Y0274258D02*
X1511702Y0277194D01*
X1510968Y0272590D02*
X1513904Y0272590D01*
X1513904Y0269654D02*
X1510968Y0269654D01*
X1509500Y0271122D01*
X1510968Y0272590D01*
X1511702Y0267986D02*
X1510234Y0267986D01*
X1509500Y0267252D01*
X1509500Y0265784D01*
X1510234Y0265050D01*
X1511702Y0265050D02*
X1512436Y0266518D01*
X1512436Y0267252D01*
X1511702Y0267986D01*
X1513904Y0267986D02*
X1513904Y0265050D01*
X1511702Y0265050D01*
X1520234Y0300550D02*
X1519500Y0301284D01*
X1519500Y0302752D01*
X1520234Y0303486D01*
X1520968Y0303486D01*
X1521702Y0302752D01*
X1521702Y0301284D01*
X1522436Y0300550D01*
X1523170Y0300550D01*
X1523904Y0301284D01*
X1523904Y0302752D01*
X1523170Y0303486D01*
X1523170Y0305154D02*
X1520234Y0305154D01*
X1519500Y0305888D01*
X1519500Y0307356D01*
X1520234Y0308090D01*
X1519500Y0309758D02*
X1519500Y0312694D01*
X1519500Y0309758D02*
X1523904Y0309758D01*
X1523170Y0308090D02*
X1523904Y0307356D01*
X1523904Y0305888D01*
X1523170Y0305154D01*
X1544700Y0305154D02*
X1544700Y0307356D01*
X1545434Y0308090D01*
X1548370Y0308090D01*
X1549104Y0307356D01*
X1549104Y0305154D01*
X1544700Y0305154D01*
X1545434Y0303486D02*
X1544700Y0302752D01*
X1544700Y0301284D01*
X1545434Y0300550D01*
X1546902Y0301284D02*
X1546902Y0302752D01*
X1546168Y0303486D01*
X1545434Y0303486D01*
X1546902Y0301284D02*
X1547636Y0300550D01*
X1548370Y0300550D01*
X1549104Y0301284D01*
X1549104Y0302752D01*
X1548370Y0303486D01*
X1547636Y0309758D02*
X1549104Y0311226D01*
X1547636Y0312694D01*
X1544700Y0312694D01*
X1546902Y0312694D02*
X1546902Y0309758D01*
X1547636Y0309758D02*
X1544700Y0309758D01*
X1537450Y0384000D02*
X1534514Y0384000D01*
X1535982Y0384000D02*
X1535982Y0388404D01*
X1537450Y0386936D01*
X1532846Y0387670D02*
X1532112Y0388404D01*
X1530644Y0388404D01*
X1529910Y0387670D01*
X1532846Y0384734D01*
X1532112Y0384000D01*
X1530644Y0384000D01*
X1529910Y0384734D01*
X1529910Y0387670D01*
X1528242Y0386936D02*
X1526774Y0388404D01*
X1525306Y0386936D01*
X1525306Y0384000D01*
X1525306Y0386202D02*
X1528242Y0386202D01*
X1528242Y0386936D02*
X1528242Y0384000D01*
X1532846Y0384734D02*
X1532846Y0387670D01*
X1547540Y0405000D02*
X1546806Y0405734D01*
X1546806Y0408670D01*
X1547540Y0409404D01*
X1549742Y0409404D01*
X1549742Y0405000D01*
X1547540Y0405000D01*
X1551410Y0405000D02*
X1551410Y0409404D01*
X1554346Y0409404D02*
X1551410Y0405000D01*
X1554346Y0405000D02*
X1554346Y0409404D01*
X1556014Y0408670D02*
X1556748Y0409404D01*
X1558216Y0409404D01*
X1558950Y0408670D01*
X1558950Y0405734D01*
X1558216Y0405000D01*
X1556748Y0405000D01*
X1556014Y0405734D01*
X1556014Y0407202D01*
X1557482Y0407202D01*
X1537450Y0408136D02*
X1535982Y0409604D01*
X1535982Y0405200D01*
X1537450Y0405200D02*
X1534514Y0405200D01*
X1532846Y0405200D02*
X1529910Y0408136D01*
X1529910Y0408870D01*
X1530644Y0409604D01*
X1532112Y0409604D01*
X1532846Y0408870D01*
X1532846Y0405200D02*
X1529910Y0405200D01*
X1528242Y0406668D02*
X1526774Y0405200D01*
X1525306Y0406668D01*
X1525306Y0409604D01*
X1528242Y0409604D02*
X1528242Y0406668D01*
X1302402Y0221494D02*
X1302402Y0218558D01*
X1301668Y0216890D02*
X1304604Y0216890D01*
X1304604Y0213954D02*
X1301668Y0213954D01*
X1300200Y0215422D01*
X1301668Y0216890D01*
X1300934Y0220026D02*
X1303870Y0220026D01*
X1304604Y0212286D02*
X1304604Y0209350D01*
X1302402Y0209350D01*
X1303136Y0210818D01*
X1303136Y0211552D01*
X1302402Y0212286D01*
X1300934Y0212286D01*
X1300200Y0211552D01*
X1300200Y0210084D01*
X1300934Y0209350D01*
X1345934Y0189226D02*
X1348870Y0189226D01*
X1347402Y0187758D02*
X1347402Y0190694D01*
X1346668Y0186090D02*
X1349604Y0186090D01*
X1349604Y0183154D02*
X1346668Y0183154D01*
X1345200Y0184622D01*
X1346668Y0186090D01*
X1347402Y0181486D02*
X1345934Y0181486D01*
X1345200Y0180752D01*
X1345200Y0179284D01*
X1345934Y0178550D01*
X1347402Y0178550D02*
X1348136Y0180018D01*
X1348136Y0180752D01*
X1347402Y0181486D01*
X1349604Y0181486D02*
X1349604Y0178550D01*
X1347402Y0178550D01*
X1322250Y0099404D02*
X1320782Y0099404D01*
X1321516Y0099404D02*
X1321516Y0095000D01*
X1322250Y0095000D02*
X1320782Y0095000D01*
X1319181Y0095000D02*
X1316245Y0097936D01*
X1316245Y0098670D01*
X1316979Y0099404D01*
X1318447Y0099404D01*
X1319181Y0098670D01*
X1319181Y0095000D02*
X1316245Y0095000D01*
X1314577Y0095734D02*
X1313843Y0095000D01*
X1312375Y0095000D01*
X1311641Y0095734D01*
X1311641Y0098670D02*
X1312375Y0099404D01*
X1313843Y0099404D01*
X1314577Y0098670D01*
X1314577Y0095734D01*
X1313150Y0091350D02*
X1311650Y0091350D01*
X1311150Y0090850D01*
X1292150Y0090850D01*
X1291650Y0091350D01*
X1290150Y0091350D01*
X1290090Y0091348D01*
X1290029Y0091343D01*
X1289970Y0091334D01*
X1289911Y0091321D01*
X1289852Y0091305D01*
X1289795Y0091285D01*
X1289740Y0091262D01*
X1289685Y0091235D01*
X1289633Y0091206D01*
X1289582Y0091173D01*
X1289533Y0091137D01*
X1289487Y0091099D01*
X1289443Y0091057D01*
X1289401Y0091013D01*
X1289363Y0090967D01*
X1289327Y0090918D01*
X1289294Y0090867D01*
X1289265Y0090815D01*
X1289238Y0090760D01*
X1289215Y0090705D01*
X1289195Y0090648D01*
X1289179Y0090589D01*
X1289166Y0090530D01*
X1289157Y0090471D01*
X1289152Y0090410D01*
X1289150Y0090350D01*
X1288621Y0095000D02*
X1291557Y0095000D01*
X1291557Y0099404D01*
X1286953Y0099404D02*
X1286953Y0095734D01*
X1286219Y0095000D01*
X1284751Y0095000D01*
X1284017Y0095734D01*
X1284017Y0099404D01*
X1282349Y0099404D02*
X1280147Y0099404D01*
X1279413Y0098670D01*
X1279413Y0097202D01*
X1280147Y0096468D01*
X1282349Y0096468D01*
X1282349Y0095000D02*
X1282349Y0099404D01*
X1277745Y0098670D02*
X1277745Y0097936D01*
X1277011Y0097202D01*
X1275544Y0097202D01*
X1274810Y0096468D01*
X1274810Y0095734D01*
X1275544Y0095000D01*
X1277011Y0095000D01*
X1277745Y0095734D01*
X1277745Y0098670D02*
X1277011Y0099404D01*
X1275544Y0099404D01*
X1274810Y0098670D01*
X1293225Y0095000D02*
X1296161Y0095000D01*
X1296161Y0099404D01*
X1297829Y0099404D02*
X1297829Y0095734D01*
X1298563Y0095000D01*
X1300031Y0095000D01*
X1300765Y0095734D01*
X1300765Y0099404D01*
X1302433Y0098670D02*
X1302433Y0097202D01*
X1303167Y0096468D01*
X1305369Y0096468D01*
X1305369Y0095000D02*
X1305369Y0099404D01*
X1303167Y0099404D01*
X1302433Y0098670D01*
X1313150Y0091350D02*
X1313210Y0091348D01*
X1313271Y0091343D01*
X1313330Y0091334D01*
X1313389Y0091321D01*
X1313448Y0091305D01*
X1313505Y0091285D01*
X1313560Y0091262D01*
X1313615Y0091235D01*
X1313667Y0091206D01*
X1313718Y0091173D01*
X1313767Y0091137D01*
X1313813Y0091099D01*
X1313857Y0091057D01*
X1313899Y0091013D01*
X1313937Y0090967D01*
X1313973Y0090918D01*
X1314006Y0090867D01*
X1314035Y0090815D01*
X1314062Y0090760D01*
X1314085Y0090705D01*
X1314105Y0090648D01*
X1314121Y0090589D01*
X1314134Y0090530D01*
X1314143Y0090471D01*
X1314148Y0090410D01*
X1314150Y0090350D01*
X1314150Y0083350D02*
X1314148Y0083290D01*
X1314143Y0083229D01*
X1314134Y0083170D01*
X1314121Y0083111D01*
X1314105Y0083052D01*
X1314085Y0082995D01*
X1314062Y0082940D01*
X1314035Y0082885D01*
X1314006Y0082833D01*
X1313973Y0082782D01*
X1313937Y0082733D01*
X1313899Y0082687D01*
X1313857Y0082643D01*
X1313813Y0082601D01*
X1313767Y0082563D01*
X1313718Y0082527D01*
X1313667Y0082494D01*
X1313615Y0082465D01*
X1313560Y0082438D01*
X1313505Y0082415D01*
X1313448Y0082395D01*
X1313389Y0082379D01*
X1313330Y0082366D01*
X1313271Y0082357D01*
X1313210Y0082352D01*
X1313150Y0082350D01*
X1311650Y0082350D01*
X1311150Y0082850D01*
X1292150Y0082850D01*
X1291650Y0082350D01*
X1290150Y0082350D01*
X1290090Y0082352D01*
X1290029Y0082357D01*
X1289970Y0082366D01*
X1289911Y0082379D01*
X1289852Y0082395D01*
X1289795Y0082415D01*
X1289740Y0082438D01*
X1289685Y0082465D01*
X1289633Y0082494D01*
X1289582Y0082527D01*
X1289533Y0082563D01*
X1289487Y0082601D01*
X1289443Y0082643D01*
X1289401Y0082687D01*
X1289363Y0082733D01*
X1289327Y0082782D01*
X1289294Y0082833D01*
X1289265Y0082885D01*
X1289238Y0082940D01*
X1289215Y0082995D01*
X1289195Y0083052D01*
X1289179Y0083111D01*
X1289166Y0083170D01*
X1289157Y0083229D01*
X1289152Y0083290D01*
X1289150Y0083350D01*
X1281950Y0085834D02*
X1281216Y0085100D01*
X1279748Y0085100D01*
X1279014Y0085834D01*
X1279014Y0086568D01*
X1279748Y0087302D01*
X1281216Y0087302D01*
X1281950Y0088036D01*
X1281950Y0088770D01*
X1281216Y0089504D01*
X1279748Y0089504D01*
X1279014Y0088770D01*
X1277346Y0088770D02*
X1277346Y0085834D01*
X1276612Y0085100D01*
X1275144Y0085100D01*
X1274410Y0085834D01*
X1272742Y0085100D02*
X1269806Y0085100D01*
X1272742Y0085100D02*
X1272742Y0089504D01*
X1274410Y0088770D02*
X1275144Y0089504D01*
X1276612Y0089504D01*
X1277346Y0088770D01*
X1290150Y0071350D02*
X1291650Y0071350D01*
X1292150Y0070850D01*
X1311150Y0070850D01*
X1311650Y0071350D01*
X1313150Y0071350D01*
X1313210Y0071348D01*
X1313271Y0071343D01*
X1313330Y0071334D01*
X1313389Y0071321D01*
X1313448Y0071305D01*
X1313505Y0071285D01*
X1313560Y0071262D01*
X1313615Y0071235D01*
X1313667Y0071206D01*
X1313718Y0071173D01*
X1313767Y0071137D01*
X1313813Y0071099D01*
X1313857Y0071057D01*
X1313899Y0071013D01*
X1313937Y0070967D01*
X1313973Y0070918D01*
X1314006Y0070867D01*
X1314035Y0070815D01*
X1314062Y0070760D01*
X1314085Y0070705D01*
X1314105Y0070648D01*
X1314121Y0070589D01*
X1314134Y0070530D01*
X1314143Y0070471D01*
X1314148Y0070410D01*
X1314150Y0070350D01*
X1314150Y0063350D02*
X1314148Y0063290D01*
X1314143Y0063229D01*
X1314134Y0063170D01*
X1314121Y0063111D01*
X1314105Y0063052D01*
X1314085Y0062995D01*
X1314062Y0062940D01*
X1314035Y0062885D01*
X1314006Y0062833D01*
X1313973Y0062782D01*
X1313937Y0062733D01*
X1313899Y0062687D01*
X1313857Y0062643D01*
X1313813Y0062601D01*
X1313767Y0062563D01*
X1313718Y0062527D01*
X1313667Y0062494D01*
X1313615Y0062465D01*
X1313560Y0062438D01*
X1313505Y0062415D01*
X1313448Y0062395D01*
X1313389Y0062379D01*
X1313330Y0062366D01*
X1313271Y0062357D01*
X1313210Y0062352D01*
X1313150Y0062350D01*
X1311650Y0062350D01*
X1311150Y0062850D01*
X1292150Y0062850D01*
X1291650Y0062350D01*
X1290150Y0062350D01*
X1290090Y0062352D01*
X1290029Y0062357D01*
X1289970Y0062366D01*
X1289911Y0062379D01*
X1289852Y0062395D01*
X1289795Y0062415D01*
X1289740Y0062438D01*
X1289685Y0062465D01*
X1289633Y0062494D01*
X1289582Y0062527D01*
X1289533Y0062563D01*
X1289487Y0062601D01*
X1289443Y0062643D01*
X1289401Y0062687D01*
X1289363Y0062733D01*
X1289327Y0062782D01*
X1289294Y0062833D01*
X1289265Y0062885D01*
X1289238Y0062940D01*
X1289215Y0062995D01*
X1289195Y0063052D01*
X1289179Y0063111D01*
X1289166Y0063170D01*
X1289157Y0063229D01*
X1289152Y0063290D01*
X1289150Y0063350D01*
X1281650Y0065334D02*
X1280916Y0064600D01*
X1279448Y0064600D01*
X1278714Y0065334D01*
X1278714Y0066068D01*
X1279448Y0066802D01*
X1280916Y0066802D01*
X1281650Y0067536D01*
X1281650Y0068270D01*
X1280916Y0069004D01*
X1279448Y0069004D01*
X1278714Y0068270D01*
X1277046Y0069004D02*
X1274844Y0069004D01*
X1274110Y0068270D01*
X1274110Y0065334D01*
X1274844Y0064600D01*
X1277046Y0064600D01*
X1277046Y0069004D01*
X1272442Y0067536D02*
X1270974Y0069004D01*
X1269506Y0067536D01*
X1269506Y0064600D01*
X1269506Y0066802D02*
X1272442Y0066802D01*
X1272442Y0067536D02*
X1272442Y0064600D01*
X1273370Y0056690D02*
X1274104Y0055956D01*
X1274104Y0054488D01*
X1273370Y0053754D01*
X1270434Y0053754D01*
X1269700Y0054488D01*
X1269700Y0055956D01*
X1270434Y0056690D01*
X1269700Y0052086D02*
X1274104Y0052086D01*
X1274104Y0049150D02*
X1269700Y0052086D01*
X1269700Y0049150D02*
X1274104Y0049150D01*
X1289150Y0070350D02*
X1289152Y0070410D01*
X1289157Y0070471D01*
X1289166Y0070530D01*
X1289179Y0070589D01*
X1289195Y0070648D01*
X1289215Y0070705D01*
X1289238Y0070760D01*
X1289265Y0070815D01*
X1289294Y0070867D01*
X1289327Y0070918D01*
X1289363Y0070967D01*
X1289401Y0071013D01*
X1289443Y0071057D01*
X1289487Y0071099D01*
X1289533Y0071137D01*
X1289582Y0071173D01*
X1289633Y0071206D01*
X1289685Y0071235D01*
X1289740Y0071262D01*
X1289795Y0071285D01*
X1289852Y0071305D01*
X1289911Y0071321D01*
X1289970Y0071334D01*
X1290029Y0071343D01*
X1290090Y0071348D01*
X1290150Y0071350D01*
X1037404Y0067764D02*
X1037404Y0065562D01*
X1033000Y0065562D01*
X1033000Y0067764D01*
X1033734Y0068498D01*
X1036670Y0068498D01*
X1037404Y0067764D01*
X1037404Y0063894D02*
X1033000Y0063894D01*
X1037404Y0060958D01*
X1033000Y0060958D01*
X1033734Y0059290D02*
X1035202Y0059290D01*
X1035202Y0057822D01*
X1036670Y0059290D02*
X1037404Y0058556D01*
X1037404Y0057088D01*
X1036670Y0056354D01*
X1033734Y0056354D01*
X1033000Y0057088D01*
X1033000Y0058556D01*
X1033734Y0059290D01*
X1033734Y0054686D02*
X1033000Y0053952D01*
X1033000Y0052484D01*
X1033734Y0051750D01*
X1036670Y0051750D01*
X1037404Y0052484D01*
X1037404Y0053952D01*
X1036670Y0054686D01*
X1033734Y0054686D01*
X1033000Y0054686D02*
X1034468Y0053218D01*
X1018604Y0053318D02*
X1014200Y0053318D01*
X1014200Y0051850D02*
X1014200Y0054786D01*
X1014934Y0056454D02*
X1014200Y0057188D01*
X1014200Y0058656D01*
X1014934Y0059390D01*
X1016402Y0059390D01*
X1017136Y0058656D01*
X1017136Y0057922D01*
X1016402Y0056454D01*
X1018604Y0056454D01*
X1018604Y0059390D01*
X1018604Y0061058D02*
X1015668Y0061058D01*
X1014200Y0062526D01*
X1015668Y0063994D01*
X1018604Y0063994D01*
X1016402Y0065662D02*
X1016402Y0068598D01*
X1002604Y0064594D02*
X0999668Y0064594D01*
X0998200Y0063126D01*
X0999668Y0061658D01*
X1002604Y0061658D01*
X1002604Y0059990D02*
X1002604Y0057054D01*
X1000402Y0057054D01*
X1001136Y0058522D01*
X1001136Y0059256D01*
X1000402Y0059990D01*
X0998934Y0059990D01*
X0998200Y0059256D01*
X0998200Y0057788D01*
X0998934Y0057054D01*
X0998200Y0055386D02*
X0998200Y0052450D01*
X0998200Y0053918D02*
X1002604Y0053918D01*
X1001136Y0052450D01*
X0987104Y0053618D02*
X0982700Y0053618D01*
X0982700Y0052150D02*
X0982700Y0055086D01*
X0982700Y0056754D02*
X0985636Y0059690D01*
X0986370Y0059690D01*
X0987104Y0058956D01*
X0987104Y0057488D01*
X0986370Y0056754D01*
X0987104Y0053618D02*
X0985636Y0052150D01*
X0982700Y0056754D02*
X0982700Y0059690D01*
X0984168Y0061358D02*
X0982700Y0062826D01*
X0984168Y0064294D01*
X0987104Y0064294D01*
X0984902Y0065962D02*
X0984902Y0068898D01*
X0986370Y0067430D02*
X0983434Y0067430D01*
X0984168Y0061358D02*
X0987104Y0061358D01*
X0998934Y0067730D02*
X1001870Y0067730D01*
X1000402Y0066262D02*
X1000402Y0069198D01*
X0970970Y0062726D02*
X0968034Y0062726D01*
X0969502Y0061258D02*
X0969502Y0064194D01*
X0968768Y0059590D02*
X0971704Y0059590D01*
X0971704Y0056654D02*
X0968768Y0056654D01*
X0967300Y0058122D01*
X0968768Y0059590D01*
X0969502Y0054986D02*
X0968034Y0054986D01*
X0967300Y0054252D01*
X0967300Y0052784D01*
X0968034Y0052050D01*
X0969502Y0052050D02*
X0970236Y0053518D01*
X0970236Y0054252D01*
X0969502Y0054986D01*
X0971704Y0054986D02*
X0971704Y0052050D01*
X0969502Y0052050D01*
X0955804Y0052450D02*
X0951400Y0055386D01*
X0955804Y0055386D01*
X0955070Y0057054D02*
X0955804Y0057788D01*
X0955804Y0059256D01*
X0955070Y0059990D01*
X0953602Y0059990D02*
X0953602Y0058522D01*
X0953602Y0059990D02*
X0952134Y0059990D01*
X0951400Y0059256D01*
X0951400Y0057788D01*
X0952134Y0057054D01*
X0955070Y0057054D01*
X0955804Y0061658D02*
X0951400Y0064594D01*
X0955804Y0064594D01*
X0955804Y0066262D02*
X0951400Y0066262D01*
X0951400Y0068464D01*
X0952134Y0069198D01*
X0955070Y0069198D01*
X0955804Y0068464D01*
X0955804Y0066262D01*
X0955804Y0061658D02*
X0951400Y0061658D01*
X0951400Y0052450D02*
X0955804Y0052450D01*
X1017136Y0051850D02*
X1018604Y0053318D01*
X0920804Y0088184D02*
X0920070Y0087450D01*
X0919336Y0087450D01*
X0918602Y0088184D01*
X0918602Y0089652D01*
X0917868Y0090386D01*
X0917134Y0090386D01*
X0916400Y0089652D01*
X0916400Y0088184D01*
X0917134Y0087450D01*
X0920804Y0088184D02*
X0920804Y0089652D01*
X0920070Y0090386D01*
X0920804Y0092054D02*
X0920804Y0094256D01*
X0920070Y0094990D01*
X0917134Y0094990D01*
X0916400Y0094256D01*
X0916400Y0092054D01*
X0920804Y0092054D01*
X0919336Y0096658D02*
X0920804Y0098126D01*
X0919336Y0099594D01*
X0916400Y0099594D01*
X0918602Y0099594D02*
X0918602Y0096658D01*
X0919336Y0096658D02*
X0916400Y0096658D01*
X0926400Y0103184D02*
X0927134Y0102450D01*
X0926400Y0103184D02*
X0926400Y0104652D01*
X0927134Y0105386D01*
X0927868Y0105386D01*
X0928602Y0104652D01*
X0928602Y0103184D01*
X0929336Y0102450D01*
X0930070Y0102450D01*
X0930804Y0103184D01*
X0930804Y0104652D01*
X0930070Y0105386D01*
X0930070Y0107054D02*
X0927134Y0107054D01*
X0926400Y0107788D01*
X0926400Y0109256D01*
X0927134Y0109990D01*
X0926400Y0111658D02*
X0926400Y0114594D01*
X0926400Y0111658D02*
X0930804Y0111658D01*
X0930070Y0109990D02*
X0930804Y0109256D01*
X0930804Y0107788D01*
X0930070Y0107054D01*
X0893570Y0064590D02*
X0894304Y0063856D01*
X0894304Y0062388D01*
X0893570Y0061654D01*
X0890634Y0061654D01*
X0889900Y0062388D01*
X0889900Y0063856D01*
X0890634Y0064590D01*
X0889900Y0059986D02*
X0894304Y0059986D01*
X0894304Y0057050D02*
X0889900Y0057050D01*
X0889900Y0059986D02*
X0894304Y0057050D01*
X0673904Y0056156D02*
X0673904Y0054688D01*
X0673170Y0053954D01*
X0670234Y0053954D01*
X0669500Y0054688D01*
X0669500Y0056156D01*
X0670234Y0056890D01*
X0671702Y0056890D01*
X0671702Y0055422D01*
X0673170Y0056890D02*
X0673904Y0056156D01*
X0673904Y0058558D02*
X0669500Y0061494D01*
X0673904Y0061494D01*
X0673904Y0063162D02*
X0673904Y0065364D01*
X0673170Y0066098D01*
X0670234Y0066098D01*
X0669500Y0065364D01*
X0669500Y0063162D01*
X0673904Y0063162D01*
X0673904Y0058558D02*
X0669500Y0058558D01*
X0669500Y0052286D02*
X0670968Y0050818D01*
X0670234Y0052286D02*
X0669500Y0051552D01*
X0669500Y0050084D01*
X0670234Y0049350D01*
X0673170Y0049350D01*
X0673904Y0050084D01*
X0673904Y0051552D01*
X0673170Y0052286D01*
X0670234Y0052286D01*
X0596104Y0053086D02*
X0591700Y0053086D01*
X0596104Y0050150D01*
X0591700Y0050150D01*
X0592434Y0054754D02*
X0591700Y0055488D01*
X0591700Y0056956D01*
X0592434Y0057690D01*
X0593902Y0057690D01*
X0593902Y0056222D01*
X0595370Y0057690D02*
X0596104Y0056956D01*
X0596104Y0055488D01*
X0595370Y0054754D01*
X0592434Y0054754D01*
X0591700Y0059358D02*
X0596104Y0059358D01*
X0591700Y0062294D01*
X0596104Y0062294D01*
X0596104Y0063962D02*
X0596104Y0066164D01*
X0595370Y0066898D01*
X0592434Y0066898D01*
X0591700Y0066164D01*
X0591700Y0063962D01*
X0596104Y0063962D01*
X0550804Y0073184D02*
X0550070Y0072450D01*
X0549336Y0072450D01*
X0548602Y0073184D01*
X0548602Y0074652D01*
X0547868Y0075386D01*
X0547134Y0075386D01*
X0546400Y0074652D01*
X0546400Y0073184D01*
X0547134Y0072450D01*
X0550804Y0073184D02*
X0550804Y0074652D01*
X0550070Y0075386D01*
X0550804Y0077054D02*
X0546400Y0077054D01*
X0546400Y0079256D01*
X0547134Y0079990D01*
X0550070Y0079990D01*
X0550804Y0079256D01*
X0550804Y0077054D01*
X0549336Y0081658D02*
X0550804Y0083126D01*
X0549336Y0084594D01*
X0546400Y0084594D01*
X0548602Y0084594D02*
X0548602Y0081658D01*
X0549336Y0081658D02*
X0546400Y0081658D01*
X0533370Y0066690D02*
X0534104Y0065956D01*
X0534104Y0064488D01*
X0533370Y0063754D01*
X0530434Y0063754D01*
X0529700Y0064488D01*
X0529700Y0065956D01*
X0530434Y0066690D01*
X0529700Y0062086D02*
X0534104Y0062086D01*
X0534104Y0059150D02*
X0529700Y0062086D01*
X0529700Y0059150D02*
X0534104Y0059150D01*
X0562134Y0102450D02*
X0561400Y0103184D01*
X0561400Y0104652D01*
X0562134Y0105386D01*
X0562868Y0105386D01*
X0563602Y0104652D01*
X0563602Y0103184D01*
X0564336Y0102450D01*
X0565070Y0102450D01*
X0565804Y0103184D01*
X0565804Y0104652D01*
X0565070Y0105386D01*
X0565070Y0107054D02*
X0562134Y0107054D01*
X0561400Y0107788D01*
X0561400Y0109256D01*
X0562134Y0109990D01*
X0561400Y0111658D02*
X0561400Y0114594D01*
X0561400Y0111658D02*
X0565804Y0111658D01*
X0565070Y0109990D02*
X0565804Y0109256D01*
X0565804Y0107788D01*
X0565070Y0107054D01*
X0653700Y0118150D02*
X0653700Y0121086D01*
X0653700Y0119618D02*
X0658104Y0119618D01*
X0656636Y0118150D01*
X0655902Y0122754D02*
X0656636Y0124222D01*
X0656636Y0124956D01*
X0655902Y0125690D01*
X0654434Y0125690D01*
X0653700Y0124956D01*
X0653700Y0123488D01*
X0654434Y0122754D01*
X0655902Y0122754D02*
X0658104Y0122754D01*
X0658104Y0125690D01*
X0658104Y0127358D02*
X0655168Y0127358D01*
X0653700Y0128826D01*
X0655168Y0130294D01*
X0658104Y0130294D01*
X0655902Y0131962D02*
X0655902Y0134898D01*
X0284104Y0064164D02*
X0284104Y0061962D01*
X0279700Y0061962D01*
X0279700Y0064164D01*
X0280434Y0064898D01*
X0283370Y0064898D01*
X0284104Y0064164D01*
X0284104Y0060294D02*
X0279700Y0060294D01*
X0284104Y0057358D01*
X0279700Y0057358D01*
X0280434Y0055690D02*
X0281902Y0055690D01*
X0281902Y0054222D01*
X0283370Y0055690D02*
X0284104Y0054956D01*
X0284104Y0053488D01*
X0283370Y0052754D01*
X0280434Y0052754D01*
X0279700Y0053488D01*
X0279700Y0054956D01*
X0280434Y0055690D01*
X0280434Y0051086D02*
X0279700Y0050352D01*
X0279700Y0048884D01*
X0280434Y0048150D01*
X0283370Y0048150D01*
X0284104Y0048884D01*
X0284104Y0050352D01*
X0283370Y0051086D01*
X0280434Y0051086D01*
X0279700Y0051086D02*
X0281168Y0049618D01*
X0206104Y0050150D02*
X0201700Y0053086D01*
X0206104Y0053086D01*
X0205370Y0054754D02*
X0202434Y0054754D01*
X0201700Y0055488D01*
X0201700Y0056956D01*
X0202434Y0057690D01*
X0203902Y0057690D01*
X0203902Y0056222D01*
X0205370Y0057690D02*
X0206104Y0056956D01*
X0206104Y0055488D01*
X0205370Y0054754D01*
X0206104Y0059358D02*
X0201700Y0062294D01*
X0206104Y0062294D01*
X0206104Y0063962D02*
X0206104Y0066164D01*
X0205370Y0066898D01*
X0202434Y0066898D01*
X0201700Y0066164D01*
X0201700Y0063962D01*
X0206104Y0063962D01*
X0206104Y0059358D02*
X0201700Y0059358D01*
X0201700Y0050150D02*
X0206104Y0050150D01*
D14*
X1516650Y0376850D02*
X1566650Y0376850D01*
X1566650Y0416850D01*
X1516650Y0416850D01*
X1516650Y0376850D01*
D15*
X1564760Y0473070D02*
X1564760Y0477007D01*
X1578540Y0477007D01*
X1578540Y0473070D01*
X1564760Y0473070D01*
X1554327Y0480944D02*
X1551178Y0480944D01*
X1551178Y0492756D01*
X1554327Y0492756D01*
X1554327Y0480944D01*
X1565744Y0497086D02*
X1565744Y0500236D01*
X1577556Y0500236D01*
X1577556Y0497086D01*
X1565744Y0497086D01*
X1386449Y0239103D02*
X1386449Y0236768D01*
X1385282Y0235600D01*
X1384114Y0236768D01*
X1384114Y0239103D01*
X1382766Y0238519D02*
X1382766Y0236184D01*
X1382182Y0235600D01*
X1381015Y0235600D01*
X1380431Y0236184D01*
X1380431Y0238519D01*
X1381015Y0239103D01*
X1382182Y0239103D01*
X1382766Y0238519D01*
X1379083Y0237351D02*
X1376748Y0237351D01*
X1377915Y0236184D02*
X1377915Y0238519D01*
X1489748Y0206851D02*
X1492083Y0206851D01*
X1490916Y0205684D02*
X1490916Y0208019D01*
X1493431Y0208603D02*
X1493431Y0205100D01*
X1495766Y0208603D01*
X1495766Y0205100D01*
X1497054Y0205100D02*
X1498222Y0205100D01*
X1497638Y0205100D02*
X1497638Y0208603D01*
X1498222Y0208603D02*
X1497054Y0208603D01*
X1499570Y0208603D02*
X1499570Y0206268D01*
X1500737Y0205100D01*
X1501905Y0206268D01*
X1501905Y0208603D01*
X1501905Y0188603D02*
X1501905Y0186268D01*
X1500737Y0185100D01*
X1499570Y0186268D01*
X1499570Y0188603D01*
X1498222Y0188603D02*
X1497054Y0188603D01*
X1497638Y0188603D02*
X1497638Y0185100D01*
X1498222Y0185100D02*
X1497054Y0185100D01*
X1495766Y0185100D02*
X1495766Y0188603D01*
X1493431Y0185100D01*
X1493431Y0188603D01*
X1492083Y0186851D02*
X1489748Y0186851D01*
X1539748Y0186851D02*
X1542083Y0186851D01*
X1540916Y0185684D02*
X1540916Y0188019D01*
X1543431Y0188603D02*
X1543431Y0185100D01*
X1545766Y0188603D01*
X1545766Y0185100D01*
X1547054Y0185100D02*
X1548222Y0185100D01*
X1547638Y0185100D02*
X1547638Y0188603D01*
X1548222Y0188603D02*
X1547054Y0188603D01*
X1549570Y0188603D02*
X1549570Y0186268D01*
X1550737Y0185100D01*
X1551905Y0186268D01*
X1551905Y0188603D01*
X1551905Y0168603D02*
X1551905Y0166268D01*
X1550737Y0165100D01*
X1549570Y0166268D01*
X1549570Y0168603D01*
X1548222Y0168603D02*
X1547054Y0168603D01*
X1547638Y0168603D02*
X1547638Y0165100D01*
X1548222Y0165100D02*
X1547054Y0165100D01*
X1545766Y0165100D02*
X1545766Y0168603D01*
X1543431Y0165100D01*
X1543431Y0168603D01*
X1542083Y0166851D02*
X1539748Y0166851D01*
X1510499Y0158019D02*
X1510499Y0155684D01*
X1509915Y0155100D01*
X1508747Y0155100D01*
X1508164Y0155684D01*
X1508164Y0158019D01*
X1508747Y0158603D01*
X1509915Y0158603D01*
X1510499Y0158019D01*
X1506816Y0158603D02*
X1504480Y0155100D01*
X1504480Y0158603D01*
X1506816Y0158603D02*
X1506816Y0155100D01*
X1503133Y0155100D02*
X1500797Y0158603D01*
X1499449Y0158019D02*
X1499449Y0155684D01*
X1498866Y0155100D01*
X1497698Y0155100D01*
X1497114Y0155684D01*
X1497114Y0158019D01*
X1497698Y0158603D01*
X1498866Y0158603D01*
X1499449Y0158019D01*
X1495766Y0158603D02*
X1493431Y0158603D01*
X1492083Y0158603D02*
X1489748Y0158603D01*
X1490916Y0156851D02*
X1492083Y0156851D01*
X1492083Y0155100D02*
X1492083Y0158603D01*
X1494599Y0156851D02*
X1495766Y0156851D01*
X1495766Y0155100D02*
X1495766Y0158603D01*
X1539748Y0128603D02*
X1542083Y0128603D01*
X1542083Y0125100D01*
X1542083Y0126851D02*
X1540916Y0126851D01*
X1543431Y0128603D02*
X1545766Y0128603D01*
X1545766Y0125100D01*
X1547114Y0125684D02*
X1547114Y0128019D01*
X1547698Y0128603D01*
X1548866Y0128603D01*
X1549449Y0128019D01*
X1549449Y0125684D01*
X1548866Y0125100D01*
X1547698Y0125100D01*
X1547114Y0125684D01*
X1545766Y0126851D02*
X1544599Y0126851D01*
X1550797Y0128603D02*
X1553133Y0125100D01*
X1554480Y0125100D02*
X1554480Y0128603D01*
X1556816Y0128603D02*
X1554480Y0125100D01*
X1556816Y0125100D02*
X1556816Y0128603D01*
X1558164Y0128019D02*
X1558747Y0128603D01*
X1559915Y0128603D01*
X1560499Y0128019D01*
X1560499Y0125684D01*
X1559915Y0125100D01*
X1558747Y0125100D01*
X1558164Y0125684D01*
X1558164Y0128019D01*
X1385449Y0156268D02*
X1384282Y0155100D01*
X1383114Y0156268D01*
X1383114Y0158603D01*
X1381766Y0158019D02*
X1381766Y0155684D01*
X1381182Y0155100D01*
X1380015Y0155100D01*
X1379431Y0155684D01*
X1379431Y0158019D01*
X1380015Y0158603D01*
X1381182Y0158603D01*
X1381766Y0158019D01*
X1385449Y0158603D02*
X1385449Y0156268D01*
X1378083Y0156851D02*
X1375748Y0156851D01*
X1335449Y0156268D02*
X1334282Y0155100D01*
X1333114Y0156268D01*
X1333114Y0158603D01*
X1331766Y0158019D02*
X1331766Y0155684D01*
X1331182Y0155100D01*
X1330015Y0155100D01*
X1329431Y0155684D01*
X1329431Y0158019D01*
X1330015Y0158603D01*
X1331182Y0158603D01*
X1331766Y0158019D01*
X1335449Y0158603D02*
X1335449Y0156268D01*
X1328083Y0156851D02*
X1325748Y0156851D01*
X1241905Y0166268D02*
X1240737Y0165100D01*
X1239570Y0166268D01*
X1239570Y0168603D01*
X1238222Y0168603D02*
X1237054Y0168603D01*
X1237638Y0168603D02*
X1237638Y0165100D01*
X1238222Y0165100D02*
X1237054Y0165100D01*
X1235766Y0165100D02*
X1235766Y0168603D01*
X1233431Y0165100D01*
X1233431Y0168603D01*
X1232083Y0166851D02*
X1229748Y0166851D01*
X1241905Y0166268D02*
X1241905Y0168603D01*
X1200499Y0158019D02*
X1200499Y0155684D01*
X1199915Y0155100D01*
X1198747Y0155100D01*
X1198164Y0155684D01*
X1198164Y0158019D01*
X1198747Y0158603D01*
X1199915Y0158603D01*
X1200499Y0158019D01*
X1196816Y0158603D02*
X1194480Y0155100D01*
X1194480Y0158603D01*
X1196816Y0158603D02*
X1196816Y0155100D01*
X1193133Y0155100D02*
X1190797Y0158603D01*
X1189449Y0158019D02*
X1189449Y0155684D01*
X1188866Y0155100D01*
X1187698Y0155100D01*
X1187114Y0155684D01*
X1187114Y0158019D01*
X1187698Y0158603D01*
X1188866Y0158603D01*
X1189449Y0158019D01*
X1185766Y0158603D02*
X1183431Y0158603D01*
X1182083Y0158603D02*
X1182083Y0155100D01*
X1182083Y0156851D02*
X1180916Y0156851D01*
X1182083Y0158603D02*
X1179748Y0158603D01*
X1184599Y0156851D02*
X1185766Y0156851D01*
X1185766Y0155100D02*
X1185766Y0158603D01*
X1185766Y0185100D02*
X1185766Y0188603D01*
X1183431Y0185100D01*
X1183431Y0188603D01*
X1182083Y0186851D02*
X1179748Y0186851D01*
X1187054Y0185100D02*
X1188222Y0185100D01*
X1187638Y0185100D02*
X1187638Y0188603D01*
X1188222Y0188603D02*
X1187054Y0188603D01*
X1189570Y0188603D02*
X1189570Y0186268D01*
X1190737Y0185100D01*
X1191905Y0186268D01*
X1191905Y0188603D01*
X1229748Y0186851D02*
X1232083Y0186851D01*
X1230916Y0185684D02*
X1230916Y0188019D01*
X1233431Y0188603D02*
X1233431Y0185100D01*
X1235766Y0188603D01*
X1235766Y0185100D01*
X1237054Y0185100D02*
X1238222Y0185100D01*
X1237638Y0185100D02*
X1237638Y0188603D01*
X1238222Y0188603D02*
X1237054Y0188603D01*
X1239570Y0188603D02*
X1239570Y0186268D01*
X1240737Y0185100D01*
X1241905Y0186268D01*
X1241905Y0188603D01*
X1191905Y0206268D02*
X1190737Y0205100D01*
X1189570Y0206268D01*
X1189570Y0208603D01*
X1188222Y0208603D02*
X1187054Y0208603D01*
X1187638Y0208603D02*
X1187638Y0205100D01*
X1188222Y0205100D02*
X1187054Y0205100D01*
X1185766Y0205100D02*
X1185766Y0208603D01*
X1183431Y0205100D01*
X1183431Y0208603D01*
X1182083Y0206851D02*
X1179748Y0206851D01*
X1180916Y0208019D02*
X1180916Y0205684D01*
X1191905Y0206268D02*
X1191905Y0208603D01*
X1074405Y0199103D02*
X1072070Y0199103D01*
X1073237Y0199103D02*
X1073237Y0195600D01*
X1070722Y0195600D02*
X1070722Y0199103D01*
X1068970Y0199103D01*
X1068386Y0198519D01*
X1068386Y0197351D01*
X1068970Y0196768D01*
X1070722Y0196768D01*
X1069554Y0196768D02*
X1068386Y0195600D01*
X1067039Y0195600D02*
X1065871Y0195600D01*
X1066455Y0195600D02*
X1066455Y0199103D01*
X1067039Y0199103D02*
X1065871Y0199103D01*
X1064583Y0199103D02*
X1063416Y0197935D01*
X1062248Y0199103D01*
X1062248Y0195600D01*
X1064583Y0195600D02*
X1064583Y0199103D01*
X1026449Y0199103D02*
X1026449Y0196768D01*
X1025282Y0195600D01*
X1024114Y0196768D01*
X1024114Y0199103D01*
X1022766Y0198519D02*
X1022766Y0196184D01*
X1022182Y0195600D01*
X1021015Y0195600D01*
X1020431Y0196184D01*
X1020431Y0198519D01*
X1021015Y0199103D01*
X1022182Y0199103D01*
X1022766Y0198519D01*
X1019083Y0197351D02*
X1016748Y0197351D01*
X1017915Y0196184D02*
X1017915Y0198519D01*
X0921905Y0188603D02*
X0921905Y0186268D01*
X0920737Y0185100D01*
X0919570Y0186268D01*
X0919570Y0188603D01*
X0918222Y0188603D02*
X0917054Y0188603D01*
X0917638Y0188603D02*
X0917638Y0185100D01*
X0918222Y0185100D02*
X0917054Y0185100D01*
X0915766Y0185100D02*
X0915766Y0188603D01*
X0913431Y0185100D01*
X0913431Y0188603D01*
X0912083Y0186851D02*
X0909748Y0186851D01*
X0910916Y0188019D02*
X0910916Y0185684D01*
X0913431Y0168603D02*
X0913431Y0165100D01*
X0915766Y0168603D01*
X0915766Y0165100D01*
X0917054Y0165100D02*
X0918222Y0165100D01*
X0917638Y0165100D02*
X0917638Y0168603D01*
X0918222Y0168603D02*
X0917054Y0168603D01*
X0919570Y0168603D02*
X0919570Y0166268D01*
X0920737Y0165100D01*
X0921905Y0166268D01*
X0921905Y0168603D01*
X0912083Y0166851D02*
X0909748Y0166851D01*
X0880499Y0158019D02*
X0880499Y0155684D01*
X0879915Y0155100D01*
X0878747Y0155100D01*
X0878164Y0155684D01*
X0878164Y0158019D01*
X0878747Y0158603D01*
X0879915Y0158603D01*
X0880499Y0158019D01*
X0876816Y0158603D02*
X0874480Y0155100D01*
X0874480Y0158603D01*
X0876816Y0158603D02*
X0876816Y0155100D01*
X0873133Y0155100D02*
X0870797Y0158603D01*
X0869449Y0158019D02*
X0869449Y0155684D01*
X0868866Y0155100D01*
X0867698Y0155100D01*
X0867114Y0155684D01*
X0867114Y0158019D01*
X0867698Y0158603D01*
X0868866Y0158603D01*
X0869449Y0158019D01*
X0865766Y0158603D02*
X0863431Y0158603D01*
X0862083Y0158603D02*
X0859748Y0158603D01*
X0860916Y0156851D02*
X0862083Y0156851D01*
X0862083Y0155100D02*
X0862083Y0158603D01*
X0864599Y0156851D02*
X0865766Y0156851D01*
X0865766Y0155100D02*
X0865766Y0158603D01*
X0865766Y0185100D02*
X0865766Y0188603D01*
X0863431Y0185100D01*
X0863431Y0188603D01*
X0862083Y0186851D02*
X0859748Y0186851D01*
X0867054Y0185100D02*
X0868222Y0185100D01*
X0867638Y0185100D02*
X0867638Y0188603D01*
X0868222Y0188603D02*
X0867054Y0188603D01*
X0869570Y0188603D02*
X0869570Y0186268D01*
X0870737Y0185100D01*
X0871905Y0186268D01*
X0871905Y0188603D01*
X0870737Y0205100D02*
X0869570Y0206268D01*
X0869570Y0208603D01*
X0868222Y0208603D02*
X0867054Y0208603D01*
X0867638Y0208603D02*
X0867638Y0205100D01*
X0868222Y0205100D02*
X0867054Y0205100D01*
X0865766Y0205100D02*
X0865766Y0208603D01*
X0863431Y0205100D01*
X0863431Y0208603D01*
X0862083Y0206851D02*
X0859748Y0206851D01*
X0860916Y0208019D02*
X0860916Y0205684D01*
X0870737Y0205100D02*
X0871905Y0206268D01*
X0871905Y0208603D01*
X0754405Y0199103D02*
X0752070Y0199103D01*
X0753237Y0199103D02*
X0753237Y0195600D01*
X0750722Y0195600D02*
X0750722Y0199103D01*
X0748970Y0199103D01*
X0748386Y0198519D01*
X0748386Y0197351D01*
X0748970Y0196768D01*
X0750722Y0196768D01*
X0749554Y0196768D02*
X0748386Y0195600D01*
X0747039Y0195600D02*
X0745871Y0195600D01*
X0746455Y0195600D02*
X0746455Y0199103D01*
X0747039Y0199103D02*
X0745871Y0199103D01*
X0744583Y0199103D02*
X0743416Y0197935D01*
X0742248Y0199103D01*
X0742248Y0195600D01*
X0744583Y0195600D02*
X0744583Y0199103D01*
X0706449Y0199103D02*
X0706449Y0196768D01*
X0705282Y0195600D01*
X0704114Y0196768D01*
X0704114Y0199103D01*
X0702766Y0198519D02*
X0702766Y0196184D01*
X0702182Y0195600D01*
X0701015Y0195600D01*
X0700431Y0196184D01*
X0700431Y0198519D01*
X0701015Y0199103D01*
X0702182Y0199103D01*
X0702766Y0198519D01*
X0699083Y0197351D02*
X0696748Y0197351D01*
X0697915Y0196184D02*
X0697915Y0198519D01*
X0700015Y0158603D02*
X0699431Y0158019D01*
X0699431Y0155684D01*
X0700015Y0155100D01*
X0701182Y0155100D01*
X0701766Y0155684D01*
X0701766Y0158019D01*
X0701182Y0158603D01*
X0700015Y0158603D01*
X0698083Y0156851D02*
X0695748Y0156851D01*
X0703114Y0156268D02*
X0703114Y0158603D01*
X0703114Y0156268D02*
X0704282Y0155100D01*
X0705449Y0156268D01*
X0705449Y0158603D01*
X0745748Y0156851D02*
X0748083Y0156851D01*
X0749431Y0155684D02*
X0749431Y0158019D01*
X0750015Y0158603D01*
X0751182Y0158603D01*
X0751766Y0158019D01*
X0751766Y0155684D01*
X0751182Y0155100D01*
X0750015Y0155100D01*
X0749431Y0155684D01*
X0753114Y0156268D02*
X0753114Y0158603D01*
X0753114Y0156268D02*
X0754282Y0155100D01*
X0755449Y0156268D01*
X0755449Y0158603D01*
X0705405Y0118603D02*
X0703070Y0118603D01*
X0704237Y0118603D02*
X0704237Y0115100D01*
X0701722Y0115100D02*
X0701722Y0118603D01*
X0699970Y0118603D01*
X0699386Y0118019D01*
X0699386Y0116851D01*
X0699970Y0116268D01*
X0701722Y0116268D01*
X0700554Y0116268D02*
X0699386Y0115100D01*
X0698039Y0115100D02*
X0696871Y0115100D01*
X0697455Y0115100D02*
X0697455Y0118603D01*
X0698039Y0118603D02*
X0696871Y0118603D01*
X0695583Y0118603D02*
X0694416Y0117435D01*
X0693248Y0118603D01*
X0693248Y0115100D01*
X0695583Y0115100D02*
X0695583Y0118603D01*
X0909748Y0128603D02*
X0912083Y0128603D01*
X0912083Y0125100D01*
X0912083Y0126851D02*
X0910916Y0126851D01*
X0913431Y0128603D02*
X0915766Y0128603D01*
X0915766Y0125100D01*
X0917114Y0125684D02*
X0917114Y0128019D01*
X0917698Y0128603D01*
X0918866Y0128603D01*
X0919449Y0128019D01*
X0919449Y0125684D01*
X0918866Y0125100D01*
X0917698Y0125100D01*
X0917114Y0125684D01*
X0915766Y0126851D02*
X0914599Y0126851D01*
X0920797Y0128603D02*
X0923133Y0125100D01*
X0924480Y0125100D02*
X0924480Y0128603D01*
X0926816Y0128603D02*
X0924480Y0125100D01*
X0926816Y0125100D02*
X0926816Y0128603D01*
X0928164Y0128019D02*
X0928747Y0128603D01*
X0929915Y0128603D01*
X0930499Y0128019D01*
X0930499Y0125684D01*
X0929915Y0125100D01*
X0928747Y0125100D01*
X0928164Y0125684D01*
X0928164Y0128019D01*
X1013248Y0118603D02*
X1013248Y0115100D01*
X1015583Y0115100D02*
X1015583Y0118603D01*
X1014416Y0117435D01*
X1013248Y0118603D01*
X1016871Y0118603D02*
X1018039Y0118603D01*
X1017455Y0118603D02*
X1017455Y0115100D01*
X1018039Y0115100D02*
X1016871Y0115100D01*
X1019386Y0115100D02*
X1020554Y0116268D01*
X1019970Y0116268D02*
X1021722Y0116268D01*
X1021722Y0115100D02*
X1021722Y0118603D01*
X1019970Y0118603D01*
X1019386Y0118019D01*
X1019386Y0116851D01*
X1019970Y0116268D01*
X1023070Y0118603D02*
X1025405Y0118603D01*
X1024237Y0118603D02*
X1024237Y0115100D01*
X1024282Y0155100D02*
X1023114Y0156268D01*
X1023114Y0158603D01*
X1021766Y0158019D02*
X1021766Y0155684D01*
X1021182Y0155100D01*
X1020015Y0155100D01*
X1019431Y0155684D01*
X1019431Y0158019D01*
X1020015Y0158603D01*
X1021182Y0158603D01*
X1021766Y0158019D01*
X1025449Y0158603D02*
X1025449Y0156268D01*
X1024282Y0155100D01*
X1018083Y0156851D02*
X1015748Y0156851D01*
X1065748Y0156851D02*
X1068083Y0156851D01*
X1069431Y0155684D02*
X1069431Y0158019D01*
X1070015Y0158603D01*
X1071182Y0158603D01*
X1071766Y0158019D01*
X1071766Y0155684D01*
X1071182Y0155100D01*
X1070015Y0155100D01*
X1069431Y0155684D01*
X1073114Y0156268D02*
X1073114Y0158603D01*
X1073114Y0156268D02*
X1074282Y0155100D01*
X1075449Y0156268D01*
X1075449Y0158603D01*
X1229748Y0128603D02*
X1232083Y0128603D01*
X1232083Y0125100D01*
X1232083Y0126851D02*
X1230916Y0126851D01*
X1233431Y0128603D02*
X1235766Y0128603D01*
X1235766Y0125100D01*
X1237114Y0125684D02*
X1237114Y0128019D01*
X1237698Y0128603D01*
X1238866Y0128603D01*
X1239449Y0128019D01*
X1239449Y0125684D01*
X1238866Y0125100D01*
X1237698Y0125100D01*
X1237114Y0125684D01*
X1235766Y0126851D02*
X1234599Y0126851D01*
X1240797Y0128603D02*
X1243133Y0125100D01*
X1244480Y0125100D02*
X1244480Y0128603D01*
X1246816Y0128603D02*
X1244480Y0125100D01*
X1246816Y0125100D02*
X1246816Y0128603D01*
X1248164Y0128019D02*
X1248747Y0128603D01*
X1249915Y0128603D01*
X1250499Y0128019D01*
X1250499Y0125684D01*
X1249915Y0125100D01*
X1248747Y0125100D01*
X1248164Y0125684D01*
X1248164Y0128019D01*
X1323248Y0118603D02*
X1323248Y0115100D01*
X1325583Y0115100D02*
X1325583Y0118603D01*
X1324416Y0117435D01*
X1323248Y0118603D01*
X1326871Y0118603D02*
X1328039Y0118603D01*
X1327455Y0118603D02*
X1327455Y0115100D01*
X1328039Y0115100D02*
X1326871Y0115100D01*
X1329386Y0115100D02*
X1330554Y0116268D01*
X1329970Y0116268D02*
X1331722Y0116268D01*
X1331722Y0115100D02*
X1331722Y0118603D01*
X1329970Y0118603D01*
X1329386Y0118019D01*
X1329386Y0116851D01*
X1329970Y0116268D01*
X1333070Y0118603D02*
X1335405Y0118603D01*
X1334237Y0118603D02*
X1334237Y0115100D01*
X1300308Y0081204D02*
X1298056Y0081204D01*
X1297305Y0080453D01*
X1297305Y0078952D01*
X1298056Y0078201D01*
X1300308Y0078201D01*
X1300308Y0076700D02*
X1300308Y0081204D01*
X1298807Y0078201D02*
X1297305Y0076700D01*
X1295704Y0076700D02*
X1292701Y0076700D01*
X1294203Y0076700D02*
X1294203Y0081204D01*
X1295704Y0079703D01*
X1295253Y0061104D02*
X1296004Y0060353D01*
X1295253Y0061104D02*
X1293752Y0061104D01*
X1293001Y0060353D01*
X1293001Y0059603D01*
X1296004Y0056600D01*
X1293001Y0056600D01*
X1297605Y0056600D02*
X1299107Y0058101D01*
X1298356Y0058101D02*
X1300608Y0058101D01*
X1300608Y0056600D02*
X1300608Y0061104D01*
X1298356Y0061104D01*
X1297605Y0060353D01*
X1297605Y0058852D01*
X1298356Y0058101D01*
X1327915Y0196184D02*
X1327915Y0198519D01*
X1329083Y0197351D02*
X1326748Y0197351D01*
X1330431Y0196184D02*
X1330431Y0198519D01*
X1331015Y0199103D01*
X1332182Y0199103D01*
X1332766Y0198519D01*
X1332766Y0196184D01*
X1332182Y0195600D01*
X1331015Y0195600D01*
X1330431Y0196184D01*
X1334114Y0196768D02*
X1334114Y0199103D01*
X1334114Y0196768D02*
X1335282Y0195600D01*
X1336449Y0196768D01*
X1336449Y0199103D01*
X1372248Y0199103D02*
X1372248Y0195600D01*
X1374583Y0195600D02*
X1374583Y0199103D01*
X1373416Y0197935D01*
X1372248Y0199103D01*
X1375871Y0199103D02*
X1377039Y0199103D01*
X1376455Y0199103D02*
X1376455Y0195600D01*
X1377039Y0195600D02*
X1375871Y0195600D01*
X1378386Y0195600D02*
X1379554Y0196768D01*
X1378970Y0196768D02*
X1380722Y0196768D01*
X1380722Y0195600D02*
X1380722Y0199103D01*
X1378970Y0199103D01*
X1378386Y0198519D01*
X1378386Y0197351D01*
X1378970Y0196768D01*
X1382070Y0199103D02*
X1384405Y0199103D01*
X1383237Y0199103D02*
X1383237Y0195600D01*
X1076449Y0236768D02*
X1075282Y0235600D01*
X1074114Y0236768D01*
X1074114Y0239103D01*
X1072766Y0238519D02*
X1072766Y0236184D01*
X1072182Y0235600D01*
X1071015Y0235600D01*
X1070431Y0236184D01*
X1070431Y0238519D01*
X1071015Y0239103D01*
X1072182Y0239103D01*
X1072766Y0238519D01*
X1076449Y0239103D02*
X1076449Y0236768D01*
X1069083Y0237351D02*
X1066748Y0237351D01*
X1067915Y0236184D02*
X1067915Y0238519D01*
X0756449Y0239103D02*
X0756449Y0236768D01*
X0755282Y0235600D01*
X0754114Y0236768D01*
X0754114Y0239103D01*
X0752766Y0238519D02*
X0752766Y0236184D01*
X0752182Y0235600D01*
X0751015Y0235600D01*
X0750431Y0236184D01*
X0750431Y0238519D01*
X0751015Y0239103D01*
X0752182Y0239103D01*
X0752766Y0238519D01*
X0749083Y0237351D02*
X0746748Y0237351D01*
X0747915Y0236184D02*
X0747915Y0238519D01*
M02*
